<svg xmlns="http://www.w3.org/2000/svg" viewBox="0 0 3000 2160" width="3000" height="2160"><g transform="translate(1784.3999999999999 60.0) rotate(0.0 378.0000000000001 390.0) scale(3.0630105017502927 3.0637375241072937)"><svg width="246.816" height="254.591" viewBox="0 0 246.816 254.591"><g><g><path fill="#3658C1" d="M.58 241.39c-1.017 8.112 7.784 14.818 15.843 12.069l214.068-72.992c2.959-1.01 5.004-3.017 6.055-5.418l8.941-16.559c-1.051 2.401-3.096 4.409-6.055 5.418L25.365 236.9c-8.06 2.75-16.863-3.957-15.844-12.07L36.512 9.268a9.83 9.83 0 0 1 .744-2.735L31.319 20.09a9.83 9.83 0 0 0-.744 2.735L.58 241.389z"/><path fill="#111" d="M12.615 254.59c-2.893 0-5.77-1.019-8.157-2.963-3.22-2.623-4.855-6.473-4.375-10.304v-.006L30.075 22.753c.121-.984.382-1.95.782-2.864l5.94-13.557a.504.504 0 0 1 .657-.259c.253.11.368.406.259.659v.003a9.37 9.37 0 0 0-.707 2.594l-26.99 215.564c-.437 3.486 1.062 7 4.015 9.401 3.22 2.623 7.399 3.42 11.173 2.131l214.068-72.991c2.142-.73 3.889-2.062 5.038-3.817l.735-1.363a.505.505 0 0 1 .66-.213.499.499 0 0 1 .239.65c-.221.506-.48.987-.776 1.444l-8.18 15.153c-1.152 2.637-3.406 4.656-6.333 5.654L16.587 253.93a12.282 12.282 0 0 1-3.972.658zM1.074 241.451c-.437 3.486 1.063 7 4.015 9.402 3.22 2.622 7.397 3.422 11.174 2.13l214.067-72.988c2.657-.906 4.702-2.732 5.756-5.145l6.469-11.987a11.272 11.272 0 0 1-2.965 1.519L25.523 237.374c-4.105 1.398-8.637.538-12.127-2.303-3.22-2.623-4.854-6.474-4.374-10.304L35.765 11.175l-3.992 9.113a9.37 9.37 0 0 0-.707 2.594L1.074 241.452z"/></g><g><path fill="#B0C3FF" d="M9.519 224.83 36.509 9.268c.506-4.055 3.278-6.942 6.802-8.144 3.527-1.202 7.804-.72 11.325 1.961l187.077 142.573c7.043 5.363 5.77 15.504-2.283 18.25L25.362 236.897c-8.057 2.752-16.86-3.954-15.843-12.067z"/><path fill="#111" d="M21.556 238.033c-2.892 0-5.77-1.018-8.157-2.962-3.22-2.623-4.854-6.474-4.375-10.304L36.015 9.205c.5-4.003 3.168-7.201 7.138-8.556 3.943-1.343 8.352-.58 11.79 2.04L242.02 145.26c3.588 2.732 5.328 6.824 4.66 10.948-.621 3.82-3.27 6.874-7.084 8.176L25.53 237.375c-1.302.44-2.64.658-3.973.658zM47.096 1c-1.223 0-2.447.196-3.621.598-3.6 1.228-6.018 4.118-6.469 7.73l-26.99 215.565c-.437 3.486 1.062 7 4.015 9.401 3.22 2.623 7.396 3.423 11.173 2.131l214.068-72.989c3.458-1.179 5.856-3.942 6.416-7.388.61-3.753-.988-7.488-4.277-9.99L54.335 3.485C52.192 1.85 49.64 1 47.096 1zM9.52 224.83h.008-.008z"/></g><g><g><path fill="#FFF" d="m80.602 54.873 34.484 81.945-19.118 6.52-38.38-80.617 23.014-7.848z"/><path fill="#111" d="M95.968 143.838a.499.499 0 0 1-.45-.285l-38.38-80.616a.505.505 0 0 1-.009-.408.494.494 0 0 1 .299-.28l23.013-7.844c.247-.084.52.04.623.278l34.484 81.945a.497.497 0 0 1-.301.667l-19.118 6.52a.604.604 0 0 1-.16.023zM58.281 63.015l37.949 79.707 18.19-6.2L80.326 55.5 58.28 63.015z"/></g><g><path fill="#FFF" d="m123.976 156.086 8.255 18.466-19.118 6.52-8.255-18.467 19.118-6.52z"/><path fill="#111" d="M113.113 181.572a.502.502 0 0 1-.457-.297l-8.255-18.465a.51.51 0 0 1-.003-.406.51.51 0 0 1 .299-.273l19.118-6.52a.504.504 0 0 1 .617.27l8.255 18.466a.51.51 0 0 1 .003.406.51.51 0 0 1-.299.273l-19.117 6.52a.522.522 0 0 1-.161.026zm-7.574-18.67 7.844 17.548 18.167-6.195-7.844-17.548-18.167 6.195z"/></g></g></g></svg></g><g transform="translate(982.8 40.8) rotate(-33.3723759509714 264.0 264.0) scale(1.5757713221557028 1.5740707616356027)"><svg width="335.074" height="335.436" viewBox="0 0 335.074 335.436"><path d="m330.447 171.334-37.403 8.036-16.419 17.921 37.403-8.036c1.047-.173 1.906-.644 2.524-1.319l16.419-17.921c-.619.675-1.477 1.145-2.524 1.319z" fill="#3658c1"/><path d="M276.624 198.291a1.002 1.002 0 0 1-.738-1.676l16.419-17.921a.994.994 0 0 1 .527-.302l37.403-8.036.046-.009c.79-.131 1.463-.478 1.947-1.004l.004-.004a1 1 0 0 1 1.475 1.351l-16.419 17.921c-.789.862-1.861 1.425-3.098 1.63l-37.357 8.027a.984.984 0 0 1-.209.023zm16.941-18.011-14.085 15.374 34.338-7.377c.838-.14 1.513-.489 1.997-1.017l13.415-14.642z" fill="#111"/><path d="M106.016 9.123c-.39-1.707.002-3.235.951-4.27l-16.42 17.922c-.948 1.035-1.34 2.562-.951 4.27l7.373 40.408 16.419-17.92z" fill="#3658c1"/><path d="M96.97 68.453a1 1 0 0 1-.984-.82l-7.373-40.408c-.441-1.927-.008-3.811 1.197-5.125l16.419-17.921a1 1 0 1 1 1.475 1.351c-.755.823-1.014 2.052-.713 3.371l.009.043 7.373 40.409c.056.308-.035.624-.246.855l-16.419 17.92c-.193.21-.462.325-.738.325zm7.939-59.874L91.285 23.45c-.754.823-1.014 2.052-.713 3.372l7.021 38.471 14.724-16.07-7.28-39.899a6.83 6.83 0 0 1-.128-.745z" fill="#111"/><path d="m243.966 221.253-16.419 17.921c11.982-13.078 17.924-31.745 15.117-53.296-5.882-45.165-47.965-85.894-93.993-90.969-24.065-2.653-44.445 4.965-57.573 19.295l16.419-17.921c13.129-14.33 33.508-21.948 57.573-19.295 46.028 5.075 88.111 45.803 93.993 90.969 2.807 21.551-3.135 40.218-15.117 53.296" fill="#3658c1"/><path d="M227.547 240.174a1 1 0 0 1-.737-1.676c12.252-13.373 17.53-32.014 14.863-52.491-5.817-44.664-47.586-85.085-93.111-90.104-22.705-2.503-43.383 4.413-56.726 18.977a1 1 0 0 1-1.475-1.351l16.419-17.921c13.778-15.038 35.07-22.188 58.42-19.613 46.385 5.114 88.946 46.311 94.875 91.834 2.745 21.072-2.714 40.285-15.372 54.101l-16.419 17.921a.998.998 0 0 1-.737.323zM139.513 93.399c3.044 0 6.137.17 9.268.516 46.385 5.114 88.946 46.311 94.875 91.833 1.989 15.273-.332 29.57-6.579 41.543l6.151-6.714.737.676-.737-.676c12.251-13.373 17.53-32.014 14.863-52.491-5.817-44.664-47.586-85.085-93.111-90.104-22.708-2.503-43.384 4.413-56.726 18.977l-6.219 6.788c10.588-6.757 23.505-10.348 37.478-10.348z" fill="#111"/><path d="m309.469 275.485-16.419 17.921c-.967 1.056-2.445 1.52-4.031 1.346-.983-.108-2.007-.462-2.976-1.074l16.419-17.921c.97.611 1.994.965 2.976 1.074 1.587.174 3.064-.29 4.031-1.346" fill="#3658c1"/><path d="M289.666 295.787c-.249 0-.5-.014-.755-.042-1.159-.127-2.335-.55-3.4-1.221a1 1 0 0 1-.204-1.521l16.419-17.921a1.001 1.001 0 0 1 1.271-.17c.81.511 1.692.831 2.553.926 1.293.142 2.453-.232 3.182-1.026l.001-.001a1 1 0 0 1 1.475 1.351l-.004.005-16.415 17.916c-1.012 1.102-2.486 1.704-4.123 1.704zm-2-2.4a5.72 5.72 0 0 0 1.463.371c1.294.142 2.455-.231 3.184-1.027l13.62-14.865a6.93 6.93 0 0 1-.604-.04 7.89 7.89 0 0 1-2.666-.807z" fill="#111"/><path d="m302.462 275.757-16.418 17.921-38.899-22.374 16.419-17.921z" fill="#3658c1"/><path d="M286.043 294.678a.995.995 0 0 1-.498-.133l-38.898-22.374a1.002 1.002 0 0 1-.239-1.543l16.419-17.921a1 1 0 0 1 1.236-.191l38.898 22.374a1.002 1.002 0 0 1 .239 1.543l-16.419 17.921a1 1 0 0 1-.738.324zm-37.317-23.619 37.122 21.352 15.034-16.41-37.122-21.352z" fill="#111"/><path d="M25.629 59.954a3.987 3.987 0 0 0-.459.608L8.747 87.048l16.419-17.921 16.423-26.486a3.97 3.97 0 0 1 .459-.608z" fill="#3658c1"/><path d="M8.747 88.048a1 1 0 0 1-.849-1.527L24.32 60.035c.165-.268.357-.523.571-.756l16.414-17.915.005-.006.001-.001a1 1 0 1 1 1.474 1.352l-.004.005c-.126.138-.24.29-.341.452L26.016 69.654a.965.965 0 0 1-.113.148L9.484 87.724a.998.998 0 0 1-.737.324zm26.567-37.184-8.948 9.766v.001a3.018 3.018 0 0 0-.344.455L15.228 78.494l9.137-9.973zm-9.685 9.09h.01z" fill="#111"/><path d="m263.564 253.383-16.419 17.921c-7.421 6.236-15.996 11.155-25.473 14.6l16.419-17.921c9.477-3.445 18.052-8.364 25.473-14.6" fill="#3658c1"/><path d="M221.673 286.904a1 1 0 0 1-.738-1.676l16.418-17.921a1 1 0 0 1 .396-.264c9.36-3.403 17.829-8.257 25.172-14.427a1 1 0 0 1 1.38 1.441l-16.419 17.921a1 1 0 0 1-.094.09c-7.521 6.32-16.193 11.291-25.774 14.774a.946.946 0 0 1-.341.062zm16.99-18.065-13.344 14.565c7.768-3.26 14.861-7.562 21.132-12.824l9.418-10.279c-5.318 3.432-11.075 6.29-17.206 8.538z" fill="#111"/><path d="M61.259 107.186 44.84 125.107 10.844 94.805l16.419-17.921z" fill="#3658c1"/><path d="M44.84 126.107a.999.999 0 0 1-.665-.253L10.179 95.551a.997.997 0 0 1-.072-1.422l16.419-17.921a1 1 0 0 1 1.403-.071l33.996 30.302a.997.997 0 0 1 .072 1.422l-16.419 17.921a.997.997 0 0 1-.738.325zM12.266 94.733l32.503 28.972 15.068-16.446-32.503-28.972z" fill="#111"/><path d="M27.263 76.884 10.844 94.805c-2.576-2.13-3.497-5.512-2.097-7.757l16.419-17.921c-1.4 2.245-.479 5.627 2.097 7.757" fill="#3658c1"/><path d="M10.844 95.805a.995.995 0 0 1-.637-.229c-2.993-2.474-3.985-6.368-2.308-9.056a.986.986 0 0 1 .111-.146l16.419-17.921a1 1 0 0 1 1.585 1.204c-1.13 1.812-.302 4.648 1.886 6.457a1.003 1.003 0 0 1 .1 1.447L11.581 95.48a.995.995 0 0 1-.737.325zm-1.293-8.154c-.941 1.606-.395 3.972 1.24 5.731l15.063-16.441c-1.298-1.344-2.09-2.976-2.296-4.579z" fill="#111"/><path d="m58.44 138.167-16.419 17.921c-.651-10.776.288-21.212 2.819-30.98l16.419-17.921c-2.531 9.767-3.47 20.204-2.819 30.98" fill="#3658c1"/><path d="M42.02 157.087a1 1 0 0 1-.998-.939c-.659-10.92.299-21.448 2.85-31.291a1 1 0 0 1 .231-.425l16.419-17.921a1 1 0 0 1 1.706.926c-2.498 9.64-3.436 19.959-2.789 30.669.016.271-.078.536-.261.736l-16.419 17.921c-.194.21-.463.324-.739.324zm3.726-31.488c-2.268 8.854-3.223 18.277-2.845 28.048l14.516-15.844c-.532-9.392.135-18.491 1.985-27.109z" fill="#111"/><path d="m182.671 271.982-16.419 17.921c-11.162-1.948-22.357-5.438-33.239-10.37l16.419-17.921c10.882 4.932 22.077 8.422 33.239 10.37" fill="#3658c1"/><path d="M166.253 290.903a1 1 0 0 1-.172-.015c-11.262-1.966-22.526-5.48-33.48-10.444a.998.998 0 0 1-.325-1.586l16.419-17.921a.999.999 0 0 1 1.15-.235c10.8 4.895 21.902 8.359 32.998 10.296a1.001 1.001 0 0 1 .566 1.661L166.99 290.58c-.191.207-.46.323-.737.323zm-31.566-11.716c10.227 4.52 20.714 7.76 31.199 9.636l14.824-16.181c-10.439-1.974-20.865-5.273-31.03-9.821z" fill="#111"/><path d="m241.563 314.051-34.14 2.449-16.419 17.921 34.14-2.449c1.236-.091 2.256-.591 2.966-1.366l16.419-17.921c-.711.776-1.73 1.275-2.966 1.366z" fill="#3658c1"/><path d="M191.004 335.422a1 1 0 0 1-.737-1.676l16.418-17.921a1 1 0 0 1 .666-.322l34.14-2.449c.942-.07 1.736-.429 2.296-1.04l.004-.004a1 1 0 0 1 1.475 1.351l-.004.005-16.415 17.917c-.912.996-2.167 1.579-3.629 1.687l-34.142 2.449a.885.885 0 0 1-.072.003zm16.887-17.953-14.453 15.775 31.633-2.27c.942-.07 1.738-.43 2.3-1.043l13.591-14.835zm33.672-3.418h.01z" fill="#111"/><path d="m200.232 311.668-16.419 17.921-17.56-39.686 16.418-17.921z" fill="#3658c1"/><path d="M183.813 330.589a1.001 1.001 0 0 1-.915-.595l-17.561-39.686a1 1 0 0 1 .177-1.08l16.419-17.921a1 1 0 0 1 1.652.271l17.56 39.686a1 1 0 0 1-.177 1.08l-16.418 17.921a.999.999 0 0 1-.737.324zm-16.381-40.493 16.677 37.689 14.943-16.311-16.677-37.689z" fill="#111"/><path d="m207.423 316.501-16.419 17.921a5.662 5.662 0 0 1-1.049-.021c-2.569-.283-5.106-2.225-6.142-4.812l16.419-17.921c1.036 2.587 3.573 4.528 6.142 4.812.35.038.701.046 1.049.021" fill="#3658c1"/><path d="M190.599 335.436c-.249 0-.501-.014-.753-.042-2.948-.325-5.81-2.559-6.961-5.434a.998.998 0 0 1 .191-1.047l16.418-17.921a1.002 1.002 0 0 1 1.666.304c.889 2.219 3.078 3.942 5.324 4.19.294.032.584.039.866.018a1 1 0 0 1 .81 1.673l-16.419 17.921c-.172.188-.41.303-.664.322a7.53 7.53 0 0 1-.478.016zm-5.601-5.66c1.008 1.945 3.014 3.404 5.067 3.631.164.018.326.028.486.029l14.777-16.129c-2.123-.523-4.108-1.99-5.326-3.908z" fill="#111"/><path d="m97.716 224.25-16.419 17.921c-8.382-9.003-15.64-18.846-21.571-29.24l16.419-17.921c5.93 10.394 13.189 20.237 21.571 29.24" fill="#3658c1"/><path d="M81.297 243.171a.997.997 0 0 1-.732-.319c-8.43-9.054-15.733-18.955-21.707-29.426a1.001 1.001 0 0 1 .131-1.171l16.419-17.921a1.002 1.002 0 0 1 1.606.18c5.897 10.337 13.109 20.112 21.434 29.054a1 1 0 0 1 .005 1.357l-16.419 17.921a.997.997 0 0 1-.733.324l-.004.001zm-20.339-30.103c5.654 9.799 12.489 19.085 20.336 27.627l15.063-16.441c-7.848-8.526-14.703-17.789-20.396-27.562z" fill="#111"/><path d="m76.145 195.01-16.419 17.921-40.665-2.412 16.418-17.921z" fill="#3658c1"/><path d="M59.726 213.931c-.02 0-.039 0-.059-.002l-40.666-2.412a1 1 0 0 1-.678-1.674l16.419-17.921a.987.987 0 0 1 .797-.323l40.666 2.412a1 1 0 0 1 .678 1.674l-16.419 17.921a.999.999 0 0 1-.738.325zm-38.509-4.286 38.094 2.26 14.678-16.021-38.093-2.26z" fill="#111"/><path d="M17.689 152.271c-.573-1.873-.208-3.618.842-4.764L2.113 165.428c-1.05 1.147-1.415 2.891-.842 4.764l10.911 34.995 16.419-17.92z" fill="#3658c1"/><path d="M12.181 206.187a1.004 1.004 0 0 1-.955-.702L.316 170.49c-.658-2.152-.262-4.295 1.059-5.738l16.419-17.921a1 1 0 1 1 1.475 1.351l-.003.003c-.835.914-1.068 2.33-.622 3.789l10.91 34.994a1 1 0 0 1-.217.973l-16.419 17.92a.995.995 0 0 1-.737.326zm4.279-54.938L2.85 166.104c-.838.915-1.071 2.334-.623 3.796l10.392 33.33 14.856-16.214-10.739-34.447-.001-.005a6.94 6.94 0 0 1-.275-1.315z" fill="#111"/><path d="M35.479 192.598 19.06 210.519c-3.329-.34-6.009-2.549-6.88-5.331l16.42-17.921c.87 2.782 3.551 4.992 6.879 5.331" fill="#3658c1"/><path d="M19.06 211.519a1.16 1.16 0 0 1-.102-.005c-3.612-.369-6.719-2.791-7.732-6.028a1 1 0 0 1 .217-.974l16.419-17.921a1.002 1.002 0 0 1 1.692.376c.777 2.484 3.199 4.347 6.027 4.635a1 1 0 0 1 .636 1.67l-16.419 17.921a.996.996 0 0 1-.738.326zm-5.732-6.103c.877 2.079 2.931 3.636 5.348 4.043l14.876-16.237c-2.25-.693-4.156-2.196-5.252-4.147z" fill="#111"/><path d="m125.661 288.753-16.419 17.921c-.972 1.061-2.444 1.513-4.013 1.34-1.138-.125-2.328-.58-3.415-1.368l16.419-17.921c1.087.788 2.277 1.243 3.415 1.368 1.569.173 3.04-.279 4.013-1.34" fill="#3658c1"/><path d="M105.872 309.05c-.248 0-.499-.014-.752-.042-1.351-.149-2.697-.686-3.893-1.553a1 1 0 0 1-.15-1.485l16.419-17.921a1 1 0 0 1 1.324-.134c.915.664 1.93 1.073 2.937 1.184 1.284.141 2.437-.229 3.162-1.018l.004-.004a1 1 0 1 1 1.475 1.351c-.373.407 0 0-.001.001l-16.418 17.92c-1.007 1.1-2.476 1.701-4.107 1.701zm-2.501-2.623a5.855 5.855 0 0 0 1.967.594c1.286.142 2.441-.231 3.166-1.022l13.625-14.871a7.01 7.01 0 0 1-.591-.04 7.99 7.99 0 0 1-3.14-1.062z" fill="#111"/><path d="m83.68 257.992-16.419 17.921 14.036-33.742 16.419-17.921z" fill="#3658c1"/><path d="M67.26 276.913a1 1 0 0 1-.922-1.384l14.036-33.742c.045-.107.108-.206.186-.292l16.419-17.921a.999.999 0 0 1 1.66 1.06l-14.036 33.742a1.029 1.029 0 0 1-.186.292l-16.419 17.921a.999.999 0 0 1-.738.324zm14.893-34.196-11.781 28.319 12.451-13.59 11.781-28.319zm1.527 15.275h.01z" fill="#111"/><path d="m118.233 288.725-16.419 17.921-31.834-23.01 16.419-17.921z" fill="#3658c1"/><path d="M101.814 307.646a.997.997 0 0 1-.585-.189l-31.834-23.01a1 1 0 0 1-.151-1.486l16.419-17.921a1 1 0 0 1 1.323-.135l31.834 23.01a1 1 0 0 1 .151 1.486l-16.419 17.921a1.004 1.004 0 0 1-.738.324zm-30.338-24.163 30.202 21.831 15.059-16.436-30.202-21.831z" fill="#111"/><path d="M86.399 265.715 69.98 283.636c-2.7-1.959-3.889-5.309-2.719-7.723l16.419-17.921c-1.17 2.414.019 5.764 2.719 7.723" fill="#3658c1"/><path d="M69.979 284.636a.994.994 0 0 1-.587-.191c-3.112-2.257-4.415-6.113-3.032-8.968a.997.997 0 0 1 .163-.24l16.419-17.921a1 1 0 0 1 1.637 1.111c-.951 1.963.106 4.808 2.406 6.477a1 1 0 0 1 .15 1.485L70.716 284.31a.993.993 0 0 1-.737.326zm-1.875-8.163c-.758 1.747.005 4.134 1.779 5.789l15.067-16.445c-1.47-1.361-2.398-3.106-2.65-4.838z" fill="#111"/><path d="M333.794 165.264c.931 2.973-.524 5.602-3.347 6.069l-37.403 8.036c.672 10.778-.288 21.211-2.798 30.982l33.993 30.281c2.579 2.15 3.476 5.51 2.078 7.775l-16.402 26.489c-.915 1.467-2.622 2.137-4.476 1.933-.983-.108-2.007-.462-2.976-1.074l-38.898-22.374c-7.421 6.236-15.996 11.155-25.473 14.6l7.395 40.41c.681 2.987-1.025 5.444-3.923 5.658l-34.14 2.449a5.662 5.662 0 0 1-1.049-.021c-2.569-.283-5.106-2.225-6.142-4.812l-17.56-39.686c-11.162-1.948-22.357-5.438-33.239-10.37l-23.559 26.889c-.962 1.241-2.537 1.778-4.225 1.592-1.138-.125-2.328-.58-3.415-1.368l-31.834-23.01c-2.7-1.959-3.889-5.309-2.719-7.723l14.036-33.742c-8.382-9.003-15.64-18.846-21.571-29.24l-40.666-2.412c-3.329-.34-6.009-2.549-6.88-5.331L17.69 152.269c-.909-2.971.543-5.62 3.347-6.07l37.403-8.035c-.651-10.776.288-21.212 2.819-30.98l-33.996-30.3c-2.576-2.13-3.497-5.512-2.097-7.757l16.423-26.486c.914-1.482 2.614-2.149 4.47-1.944.981.108 2.006.46 2.98 1.064l38.88 22.393c7.418-6.256 15.993-11.175 25.471-14.621l-7.374-40.409c-.682-2.987 1.028-5.423 3.926-5.637l34.116-2.472a5.751 5.751 0 0 1 1.049.02c2.573.284 5.125 2.23 6.145 4.833l17.558 39.665c11.162 1.948 22.36 5.459 33.239 10.37l23.559-26.889c.958-1.236 2.525-1.767 4.206-1.582 1.145.126 2.343.585 3.437 1.378l31.853 22.991c2.7 1.958 3.891 5.33 2.719 7.723L253.79 93.287c8.358 8.98 15.619 18.844 21.549 29.238l40.663 2.392c3.35.342 6.03 2.551 6.901 5.333zm-147.401 75.284c46.028 5.075 78.573-27.426 72.691-72.591s-47.965-85.894-93.993-90.969S86.518 104.414 92.4 149.58c5.882 45.164 47.965 85.893 93.993 90.968" fill="#FFF"/><path d="M207.019 317.515a6.86 6.86 0 0 1-.754-.042c-2.947-.325-5.81-2.559-6.961-5.434l-17.331-39.165c-10.855-1.941-21.706-5.319-32.276-10.046l-23.071 26.332c-1.114 1.44-2.98 2.159-5.087 1.927-1.351-.149-2.697-.686-3.892-1.553l-31.833-23.009c-3.114-2.259-4.417-6.114-3.033-8.969l13.766-33.097c-8.119-8.79-15.18-18.367-21-28.483l-40.126-2.38c-3.654-.372-6.762-2.795-7.775-6.031l-10.911-34.996c-.556-1.817-.378-3.591.5-5 .791-1.269 2.085-2.105 3.644-2.355l36.515-7.846c-.548-10.395.375-20.427 2.747-29.841L26.598 77.631c-2.965-2.45-3.957-6.344-2.28-9.032L40.74 42.115c1.088-1.764 3.12-2.667 5.429-2.411 1.152.127 2.327.544 3.397 1.208L87.814 62.94c7.17-5.942 15.386-10.666 24.442-14.053l-7.223-39.582c-.397-1.734-.094-3.425.863-4.719.907-1.228 2.318-1.972 3.973-2.094L143.986.02c.403-.03.818-.022 1.231.024 2.97.327 5.835 2.573 6.966 5.462l17.326 39.138c10.786 1.929 21.638 5.308 32.275 10.047l23.073-26.333c1.107-1.432 2.969-2.149 5.067-1.917 1.358.15 2.711.69 3.915 1.563l31.851 22.99c3.125 2.267 4.427 6.124 3.032 8.973L254.96 93.081c8.09 8.762 15.144 18.338 20.978 28.48l40.123 2.36c3.668.373 6.784 2.796 7.797 6.033l10.893 35.015c.562 1.798.396 3.56-.467 4.963-.788 1.28-2.092 2.129-3.672 2.39l-36.519 7.847c.562 10.313-.355 20.345-2.728 29.842l33.54 29.878c2.943 2.453 3.927 6.351 2.265 9.047l-16.403 26.49c-1.097 1.759-3.13 2.655-5.436 2.401-1.16-.128-2.335-.55-3.4-1.222l-38.26-22.006c-7.187 5.935-15.402 10.651-24.443 14.034l7.244 39.583c.398 1.741.092 3.44-.87 4.741-.908 1.229-2.316 1.972-3.964 2.094l-34.142 2.449a7.55 7.55 0 0 1-.477.015zm-57.586-56.903c.139 0 .28.029.413.089 10.8 4.895 21.902 8.359 32.998 10.296a1 1 0 0 1 .743.581l17.56 39.686c.903 2.252 3.092 3.975 5.337 4.222.294.032.584.039.866.018l34.141-2.449c1.056-.078 1.945-.535 2.501-1.287.61-.825.794-1.944.519-3.15l-7.404-40.453c-.087-.48.184-.953.642-1.12 9.36-3.403 17.829-8.257 25.172-14.427a1 1 0 0 1 1.142-.101l38.898 22.374c.845.531 1.727.852 2.587.947 1.521.168 2.84-.381 3.519-1.469l16.4-26.486c1.124-1.822.303-4.669-1.869-6.48L289.58 211.1a1.001 1.001 0 0 1-.304-.995c2.5-9.731 3.431-20.05 2.769-30.671a1 1 0 0 1 .788-1.04l37.403-8.036c1.062-.177 1.855-.684 2.342-1.474.555-.903.648-2.081.261-3.319l-.001-.001-10.892-35.014c-.776-2.482-3.207-4.346-6.047-4.635l-40.62-2.388a.999.999 0 0 1-.81-.503c-5.914-10.365-13.118-20.14-21.413-29.052a.999.999 0 0 1-.191-1.065l14.034-33.763c.983-2.012-.075-4.855-2.383-6.53l-31.851-22.99c-.924-.671-1.947-1.083-2.96-1.195-1.392-.152-2.597.284-3.306 1.2l-23.598 26.935a.999.999 0 0 1-1.164.252c-10.873-4.908-21.975-8.372-32.999-10.296a.998.998 0 0 1-.742-.58L150.337 6.273c-.888-2.265-3.077-3.994-5.34-4.243a4.745 4.745 0 0 0-.866-.017l-34.117 2.472c-1.062.079-1.954.536-2.51 1.288-.605.818-.787 1.929-.513 3.129l7.382 40.451a.999.999 0 0 1-.642 1.119c-9.376 3.409-17.844 8.27-25.167 14.446-.322.271-.78.312-1.144.102L48.54 42.627c-.846-.523-1.733-.842-2.591-.936-1.548-.171-2.825.367-3.509 1.476L26.016 69.655c-1.132 1.814-.303 4.65 1.884 6.459l34.024 30.326a1 1 0 0 1 .303.997c-2.498 9.64-3.436 19.959-2.789 30.669a1 1 0 0 1-.788 1.038l-37.403 8.035c-1.045.169-1.827.666-2.314 1.448-.568.91-.669 2.101-.286 3.352l10.909 34.99c.777 2.483 3.199 4.346 6.027 4.634l40.624 2.409c.337.02.642.209.809.503 5.897 10.337 13.109 20.112 21.434 29.054a.999.999 0 0 1 .191 1.065l-14.036 33.742c-.975 2.015.083 4.86 2.383 6.529l31.833 23.009c.916.665 1.932 1.074 2.939 1.185 1.4.154 2.61-.288 3.325-1.211l23.597-26.936a.995.995 0 0 1 .751-.34zm46.385-18.537a87.11 87.11 0 0 1-9.534-.533c-46.385-5.114-88.947-46.31-94.875-91.833-2.852-21.9 3.09-41.623 16.731-55.535 13.963-14.24 34.227-20.696 57.061-18.179 46.385 5.114 88.946 46.311 94.875 91.834 2.852 21.899-3.09 41.622-16.731 55.535-11.987 12.223-28.616 18.711-47.527 18.711zM155.674 77.462c-18.375 0-34.505 6.279-46.107 18.112-13.202 13.465-18.947 32.599-16.176 53.877 5.817 44.664 47.587 85.084 93.111 90.104 22.214 2.449 41.89-3.799 55.414-17.592 13.203-13.465 18.947-32.599 16.176-53.876-5.817-44.664-47.586-85.085-93.111-90.104a84.71 84.71 0 0 0-9.307-.521z" fill="#111"/></svg></g><g transform="translate(542.4 1462.8) rotate(90.0 -213.0 214.79999999999995) scale(-1.347227273446024 1.3463919141267724)"><svg width="316.205" height="319.075" viewBox="0 0 316.205 319.075"><linearGradient id="a" gradientTransform="matrix(.9782 .2079 -.2079 .9782 1261.0021 898.5402)" gradientUnits="userSpaceOnUse" x1="-1388.059" x2="-1076.654" y1="-425.277" y2="-425.277"><stop offset=".325" stop-color="#3658c1"/><stop offset=".706" stop-color="#b0c3ff"/><stop offset=".938" stop-color="#3658c1"/></linearGradient><path d="m313.484 170.21-4.538 28.149c-5.293 32.83-22.765 63.863-51.916 86.722-64.712 50.745-162.478 41.979-218.368-19.58-30.724-33.84-42.4-76.584-35.941-116.646l4.538-28.149C.8 160.769 12.476 203.513 43.2 237.353c55.89 61.559 153.657 70.325 218.368 19.58 29.151-22.86 46.623-53.892 51.916-86.723" fill="url(#a)"/><path d="M159.527 319.005c-44.943 0-89.996-18.014-121.605-52.83C8.169 233.405-5.02 190.586 1.733 148.697l4.539-28.149a1 1 0 0 1 1.974.318c-6.657 41.285 6.353 83.498 35.693 115.815 55.457 61.081 152.808 69.814 217.012 19.465 27.794-21.796 46.097-52.355 51.54-86.055l.006-.04a1 1 0 0 1 1.974.318l-4.539 28.149c-5.516 34.214-24.085 65.235-52.286 87.351-28.41 22.279-63.232 33.136-98.119 33.136zM4.549 143.794l-.842 5.221c-6.656 41.285 6.354 83.498 35.694 115.815 55.455 61.08 152.808 69.814 217.011 19.465 27.805-21.803 46.11-52.379 51.546-86.095l.857-5.318c-8.69 25.191-24.765 47.69-46.63 64.837-65.012 50.979-163.58 42.146-219.727-19.694-24.254-26.715-37.502-60.106-37.909-94.231z" fill="#111"/><path d="M277.552 53.581c55.89 61.559 48.738 152.599-15.984 203.352-64.711 50.745-162.478 41.979-218.368-19.58C-12.699 175.784-5.547 84.744 59.164 33.999c64.722-50.753 162.489-41.987 218.388 19.582z" fill="#b0c3ff"/><g fill="#111"><path d="M164.066 290.855c-44.943 0-89.997-18.014-121.606-52.829-27.436-30.218-40.73-68.323-37.438-107.293C8.264 92.37 27.273 57.736 58.547 33.212c65.017-50.984 163.594-42.149 219.745 19.696 27.43 30.212 40.722 68.31 37.429 107.277-3.242 38.367-22.255 73.005-53.535 97.535-28.411 22.279-63.234 33.135-98.12 33.135zM156.684 2.063c-34.459 0-68.842 10.719-96.902 32.723-30.833 24.178-49.573 58.312-52.767 96.115-3.246 38.411 9.867 75.978 36.925 105.78 55.457 61.081 152.808 69.814 217.012 19.465 30.839-24.183 49.582-58.323 52.777-96.129 3.245-38.407-9.865-75.968-36.917-105.764-31.224-34.391-75.737-52.19-120.128-52.19z"/><path d="M184.362 61.928c-6.658-7.334-21.612-5.798-33.391 3.439s-15.924 22.678-9.266 30.012 21.603 5.788 33.382-3.449c11.779-9.238 15.933-22.669 9.275-30.002"/><path d="M153.805 100.975c-5.233 0-9.832-1.611-12.84-4.924-2.568-2.829-3.734-6.581-3.373-10.851.602-7.117 5.372-14.826 12.762-20.621 12.165-9.539 27.754-11.031 34.749-3.324 2.565 2.826 3.731 6.574 3.371 10.839-.602 7.114-5.375 14.823-12.77 20.622-6.929 5.434-14.97 8.258-21.899 8.259zm18.447-42.699c-6.459 0-14.069 2.706-20.664 7.878-6.961 5.458-11.448 12.641-12.004 19.215-.312 3.702.677 6.931 2.861 9.337 6.303 6.941 20.669 5.341 32.024-3.564 6.966-5.462 11.456-12.646 12.011-19.216.312-3.697-.676-6.922-2.858-9.326-2.644-2.913-6.707-4.324-11.37-4.324zm80.762 79.267c-6.658-7.334-21.603-5.788-33.382 3.449s-15.933 22.668-9.275 30.001c6.658 7.334 21.603 5.788 33.382-3.449s15.933-22.667 9.275-30.001"/><path d="M222.456 176.59c-5.233 0-9.832-1.61-12.84-4.924-2.565-2.826-3.731-6.574-3.371-10.839.602-7.114 5.375-14.823 12.77-20.622 12.163-9.539 27.749-11.035 34.739-3.334 2.565 2.826 3.731 6.574 3.371 10.839-.602 7.114-5.375 14.823-12.77 20.622-6.929 5.433-14.97 8.258-21.899 8.258zm18.461-42.692c-6.458 0-14.069 2.707-20.668 7.882-6.966 5.462-11.456 12.646-12.011 19.216-.312 3.697.676 6.922 2.858 9.326 6.302 6.94 20.665 5.343 32.024-3.564 6.966-5.462 11.456-12.646 12.011-19.216.312-3.697-.676-6.922-2.858-9.326-2.64-2.909-6.698-4.318-11.356-4.318zm-98.826 27.05c-21.765-23.952-52.922-35.762-82.125-33.381-4.241.346-7.289 3.849-6.811 7.807.175 1.505.835 2.863 1.82 3.948 1.604 1.767 4.069 2.811 6.697 2.597 23.831-1.971 50.197 7.754 68.735 28.192l.03.033c17.791 19.596 23.916 44.126 18.986 65.076-.537 2.29.171 4.591 1.706 6.282a8.034 8.034 0 0 0 4.193 2.417c4.16.934 8.274-1.436 9.19-5.306 5.998-25.599-1.54-54.645-22.421-77.665"/><path d="M157.135 245.121c-.67 0-1.351-.073-2.032-.227-1.849-.418-3.479-1.359-4.714-2.721-1.803-1.985-2.528-4.67-1.94-7.182 5.094-21.642-1.917-45.632-18.752-64.175-17.457-19.245-43.47-29.923-67.943-27.9-2.836.235-5.649-.86-7.519-2.922-1.163-1.28-1.88-2.837-2.073-4.504-.254-2.099.352-4.171 1.706-5.83 1.444-1.769 3.638-2.895 6.018-3.089 30.498-2.491 61.508 10.113 82.946 33.705 20.435 22.526 28.903 51.896 22.654 78.565-.888 3.752-4.419 6.28-8.351 6.28zM67.693 140.672c23.218 0 47.06 10.692 63.454 28.767 17.309 19.063 24.493 43.728 19.249 66.01-.444 1.898.093 3.859 1.474 5.38.959 1.057 2.229 1.788 3.673 2.114 3.618.813 7.208-1.232 7.997-4.561 6.098-26.026-2.197-54.723-22.188-76.763-21.024-23.135-51.419-35.497-81.304-33.056-1.868.152-3.512.991-4.631 2.36a5.713 5.713 0 0 0-1.269 4.33c.146 1.253.688 2.426 1.567 3.395 1.456 1.605 3.652 2.455 5.875 2.273a74.735 74.735 0 0 1 6.103-.249z"/></g></svg></g><g transform="translate(66.0 469.2) rotate(0.0 1426.8 672.0) scale(1.990861960346015 1.991167158779284)"><svg width="1433.349" height="674.981" viewBox="0 0 1433.349 674.981"><path d="m431.079 19.418 54.465 56.281-251.598 247.734-54.465-56.282z" fill="#b0c3ff"/><path d="M233.946 324.183h-.009a.748.748 0 0 1-.53-.229l-54.465-56.281a.75.75 0 0 1 .013-1.056L430.553 18.883a.706.706 0 0 1 .536-.216c.2.002.391.085.53.229l54.465 56.281a.75.75 0 0 1-.013 1.056L234.472 323.967a.753.753 0 0 1-.526.216zm-53.409-57.019 53.421 55.203 250.53-246.681-53.422-55.203z" fill="#111"/><path d="m244.705 384.593 54.465 56.282-243.955-33.692L.75 350.901z" fill="#b0c3ff"/><path d="M299.171 441.625a.713.713 0 0 1-.103-.007L55.113 407.926a.756.756 0 0 1-.437-.221L.211 351.423a.752.752 0 0 1 .641-1.265l243.955 33.692c.166.023.32.101.437.221l54.465 56.281a.752.752 0 0 1-.538 1.273zm-243.597-35.15 241.546 33.359-52.774-54.533L2.8 351.942z" fill="#111"/><path d="m414.934 217.469 54.465 56.282-18.532 79.64-54.465-56.281z" fill="#b0c3ff"/><path d="M450.867 354.141c-.2 0-.396-.08-.539-.229l-54.465-56.281a.748.748 0 0 1-.191-.691l18.532-79.64a.75.75 0 0 1 1.269-.352l54.465 56.281a.748.748 0 0 1 .191.691l-18.532 79.641a.75.75 0 0 1-.73.58zm-53.642-57.259 53.224 54.999 18.127-77.902-53.224-54.998z" fill="#111"/><path d="m371.955 402.168 54.465 56.281-20.865 89.666-54.465-56.281z" fill="#b0c3ff"/><path d="M405.556 548.865c-.2 0-.396-.08-.539-.229l-54.465-56.281a.748.748 0 0 1-.191-.691l20.865-89.666a.75.75 0 0 1 1.269-.352l54.465 56.281a.748.748 0 0 1 .191.691l-20.865 89.666a.75.75 0 0 1-.73.581zm-53.643-57.26 53.224 54.998 20.46-87.927-53.224-54.998z" fill="#111"/><path d="m351.09 491.834 54.465 56.281-127.25-17.574-54.465-56.282z" fill="#b0c3ff"/><path d="M405.556 548.865a.713.713 0 0 1-.103-.007l-127.25-17.574a.756.756 0 0 1-.437-.221l-54.465-56.281a.752.752 0 0 1 .641-1.265l127.25 17.574c.166.023.32.101.437.221l54.465 56.281a.752.752 0 0 1-.538 1.272zm-126.892-19.032 124.841 17.241-52.774-54.533L225.89 475.3z" fill="#111"/><path d="m440.52 411.637 54.465 56.281-68.565-9.469-54.465-56.281z" fill="#b0c3ff"/><path d="M494.985 468.668a.713.713 0 0 1-.103-.007l-68.564-9.469a.756.756 0 0 1-.437-.221l-54.465-56.281a.752.752 0 0 1 .641-1.265l68.564 9.469c.166.023.32.101.437.221l54.465 56.281a.752.752 0 0 1-.538 1.272zm-68.206-10.927 66.155 9.136-52.774-54.533-66.155-9.136z" fill="#111"/><path d="m464.966 306.579 54.465 56.282-24.446 105.057-54.465-56.281z" fill="#b0c3ff"/><path d="M494.985 468.668c-.2 0-.396-.08-.539-.229l-54.465-56.281a.748.748 0 0 1-.191-.691l24.447-105.058a.75.75 0 0 1 1.269-.352l54.465 56.281a.748.748 0 0 1 .191.691l-24.447 105.058a.75.75 0 0 1-.73.581zm-53.642-57.259 53.224 54.998 24.042-103.319-53.224-54.998z" fill="#111"/><path d="m820.651 234.833-54.465-56.281c-7.926-8.19-18.08-13.14-30.465-14.851a67.353 67.353 0 0 0-4.325-.452c-.474-.035-.942-.037-1.414-.061a63.752 63.752 0 0 0-2.855-.104c-.562-.003-1.119.026-1.679.038-.846.018-1.694.032-2.534.085-.594.037-1.183.104-1.774.159-.797.074-1.595.147-2.386.253-.605.08-1.205.187-1.807.286-.768.127-1.536.256-2.299.413-.607.125-1.21.271-1.814.416-.748.179-1.495.365-2.238.573-.604.17-1.206.356-1.806.545a60.61 60.61 0 0 0-2.193.733 64.645 64.645 0 0 0-3.948 1.569c-.318.139-.642.253-.959.398-.284.13-.562.285-.845.419-.639.303-1.274.62-1.908.946-.614.316-1.226.638-1.836.976a69.16 69.16 0 0 0-1.883 1.087c-.341.203-.688.382-1.027.593-.297.183-.588.389-.884.578-.471.301-.941.609-1.41.923-.687.461-1.372.94-2.053 1.429-.459.33-.918.659-1.374 1.002-.214.161-.431.306-.645.47-.499.383-.992.799-1.488 1.198-.403.324-.807.638-1.208.973a90.21 90.21 0 0 0-2.501 2.176c-.263.236-.528.456-.79.697-.039.035-.078.067-.117.103a99.746 99.746 0 0 0-3.195 3.08c-.198.199-.392.416-.589.618a106.62 106.62 0 0 0-2.851 3.008 97.029 97.029 0 0 0-3.014 3.508c-.302.368-.602.749-.902 1.124-.39.487-.784.958-1.171 1.459-.262.339-.516.709-.776 1.055-.489.649-.975 1.31-1.458 1.981a124.607 124.607 0 0 0-3.08 4.481c-.24.366-.486.708-.725 1.08-.523.814-1.04 1.65-1.556 2.491-.066.107-.133.21-.198.318a151.764 151.764 0 0 0-2.659 4.559c-.175.311-.35.62-.524.934a167.558 167.558 0 0 0-2.249 4.18c-.08.154-.157.318-.237.473-.297.576-.587 1.176-.881 1.763a195.526 195.526 0 0 0-1.782 3.633c-.334.702-.664 1.42-.994 2.136a214.336 214.336 0 0 0-2.607 5.864 239.176 239.176 0 0 0-1.576 3.787c-.31.762-.621 1.518-.928 2.293-.132.335-.269.653-.401.991a277.427 277.427 0 0 0-1.558 4.107c-.123.33-.249.647-.371.978a301.392 301.392 0 0 0-2.268 6.386c-.209.607-.413 1.231-.619 1.845a328.303 328.303 0 0 0-2.332 7.186 362.762 362.762 0 0 0-1.543 5.072c-.2.674-.402 1.338-.601 2.019a413.762 413.762 0 0 0-2.043 7.252c-.089.326-.174.665-.262.992a438.189 438.189 0 0 0-1.714 6.568c-.207.815-.41 1.644-.614 2.468-.237.957-.479 1.897-.713 2.866a499.951 499.951 0 0 0-.992 4.187c-10.899 46.839-12.387 81.979-4.456 105.392l.191.559a87.712 87.712 0 0 0 1.114 3.035c.079.204.165.398.245.601.354.89.718 1.765 1.095 2.623.152.344.308.682.463 1.021.331.722.67 1.433 1.018 2.132.163.328.326.657.493.98.095.183.183.374.279.555.174.329.365.634.544.957.352.638.706 1.272 1.073 1.889.274.46.556.908.839 1.356.373.59.75 1.173 1.138 1.742.14.206.269.427.411.629.198.282.409.546.61.823.265.364.53.728.802 1.083a54.66 54.66 0 0 0 1.206 1.511c.27.329.538.661.814.981.098.114.191.237.291.35a50.003 50.003 0 0 0 1.675 1.816l.006.007 54.465 56.281a51.111 51.111 0 0 1-1.97-2.172c-.278-.322-.546-.655-.818-.985-.407-.494-.81-.993-1.202-1.506a59.841 59.841 0 0 1-2.962-4.279c-.282-.448-.564-.895-.838-1.354a67.272 67.272 0 0 1-1.074-1.89c-.276-.501-.555-.996-.822-1.51-.167-.323-.33-.653-.493-.981a68.804 68.804 0 0 1-1.017-2.131c-.155-.339-.312-.677-.463-1.021-.376-.856-.74-1.73-1.093-2.619-.081-.204-.167-.4-.247-.605a87.875 87.875 0 0 1-1.305-3.593c-7.931-23.413-6.444-58.554 4.456-105.392.556-2.39 1.128-4.722 1.703-7.041.206-.831.411-1.666.619-2.487a458.21 458.21 0 0 1 1.703-6.528c.092-.34.181-.692.273-1.031a414.832 414.832 0 0 1 2.04-7.24c.2-.686.404-1.355.606-2.035a365.613 365.613 0 0 1 2.261-7.346 344.39 344.39 0 0 1 1.61-4.901c.207-.615.411-1.24.62-1.848a301 301 0 0 1 2.267-6.382c.123-.334.25-.655.375-.987a271.763 271.763 0 0 1 1.955-5.089c.308-.776.619-1.534.93-2.297a253.037 253.037 0 0 1 1.575-3.785 214.813 214.813 0 0 1 2.608-5.866c.329-.714.658-1.431.992-2.131a190.06 190.06 0 0 1 1.785-3.639c.293-.584.583-1.182.878-1.756.819-1.589 1.647-3.14 2.485-4.652.175-.315.351-.626.526-.938a152.258 152.258 0 0 1 2.655-4.553c.069-.113.139-.221.208-.334.748-1.22 1.508-2.392 2.27-3.555a125.8 125.8 0 0 1 1.422-2.118 121.382 121.382 0 0 1 3.118-4.347 110.93 110.93 0 0 1 1.947-2.514c.3-.375.599-.756.902-1.124a98.082 98.082 0 0 1 3.014-3.509 108.738 108.738 0 0 1 2.855-3.011c.196-.2.389-.416.586-.614 1.096-1.103 2.2-2.163 3.312-3.184.261-.24.526-.459.787-.694a92.237 92.237 0 0 1 2.505-2.18c.399-.333.803-.647 1.205-.969a84.78 84.78 0 0 1 2.136-1.67c.456-.343.914-.671 1.372-1a73.782 73.782 0 0 1 3.465-2.353 74.34 74.34 0 0 1 1.912-1.172 67.547 67.547 0 0 1 1.882-1.085c.61-.337 1.222-.66 1.837-.976a63.78 63.78 0 0 1 1.909-.946 62.773 62.773 0 0 1 1.802-.816 61.722 61.722 0 0 1 3.947-1.569c.73-.261 1.463-.504 2.199-.735a58.876 58.876 0 0 1 1.8-.543 60.523 60.523 0 0 1 2.245-.575c.602-.144 1.203-.289 1.809-.414a59.881 59.881 0 0 1 2.307-.415c.599-.099 1.197-.205 1.799-.285.794-.106 1.596-.179 2.396-.253.588-.054 1.173-.12 1.765-.158.844-.053 1.695-.067 2.546-.085.556-.012 1.108-.041 1.667-.037.949.005 1.905.055 2.862.104.47.024.936.026 1.409.061 1.433.104 2.873.252 4.325.453 4.645.641 8.975 1.738 12.993 3.291 6.686 2.575 12.51 6.428 17.464 11.547l-.001-.001.001.001z" fill="#b0c3ff"/><path d="M696.049 475.932a.747.747 0 0 1-.539-.228l-54.465-56.281a51.422 51.422 0 0 1-1.705-1.85 6.142 6.142 0 0 1-.176-.211l-.12-.145c-.221-.256-.437-.52-.653-.783l-.173-.211a56.508 56.508 0 0 1-1.222-1.531c-.275-.36-.544-.728-.812-1.097l-.249-.333a16.97 16.97 0 0 1-.369-.5 11.72 11.72 0 0 1-.242-.369c-.058-.091-.115-.182-.175-.27a61.47 61.47 0 0 1-1.151-1.763c-.286-.453-.572-.906-.849-1.372a68.696 68.696 0 0 1-1.085-1.91c-.074-.134-.15-.265-.227-.396-.11-.188-.219-.377-.323-.573-.055-.104-.107-.21-.16-.317l-.122-.243c-.148-.286-.292-.576-.437-.866l-.062-.125a70.238 70.238 0 0 1-1.028-2.153l-.108-.237c-.121-.264-.242-.527-.359-.795a76.703 76.703 0 0 1-1.105-2.648l-.247-.605a89.281 89.281 0 0 1-1.125-3.062l-.192-.563c-7.939-23.439-6.447-59.036 4.436-105.803.328-1.41.659-2.807.994-4.193.149-.62.302-1.228.455-1.836l.393-1.578c.16-.646.319-1.291.48-1.928a452.05 452.05 0 0 1 1.718-6.579l.262-.993a420.74 420.74 0 0 1 2.047-7.265c.127-.437.256-.868.386-1.298l.217-.725a364.359 364.359 0 0 1 2.269-7.373c.531-1.662 1.07-3.297 1.614-4.912l.222-.663c.132-.398.265-.796.4-1.188a300.938 300.938 0 0 1 2.273-6.401l.371-.98a286.083 286.083 0 0 1 1.562-4.118l.402-.993c.239-.603.48-1.195.722-1.787l.209-.513a250.559 250.559 0 0 1 1.581-3.799 212.12 212.12 0 0 1 2.616-5.883l.097-.211c.299-.648.598-1.297.9-1.933.589-1.24 1.188-2.448 1.788-3.646l.312-.627c.19-.385.38-.769.574-1.144l.238-.476a166.738 166.738 0 0 1 2.258-4.197l.525-.938a155.515 155.515 0 0 1 2.672-4.582l.199-.319c.519-.846 1.039-1.687 1.565-2.505.137-.213.276-.417.416-.621.104-.153.209-.307.313-.465a135.37 135.37 0 0 1 3.098-4.507c.486-.675.975-1.341 1.467-1.994.112-.149.223-.303.334-.457.148-.205.296-.41.447-.605.254-.33.512-.646.77-.963l.649-.807c.222-.28.445-.559.669-.832a97.601 97.601 0 0 1 3.038-3.535l.375-.411c.827-.903 1.661-1.762 2.496-2.617l.258-.272c.111-.119.223-.237.335-.35a101.979 101.979 0 0 1 3.3-3.174c.192-.175.349-.311.505-.447l.328-.288a91.719 91.719 0 0 1 2.522-2.194c.279-.233.561-.457.843-.681l.879-.709c.332-.271.664-.542.998-.799.124-.095.249-.184.373-.273l.278-.202c.43-.323.863-.634 1.296-.946l.09-.065a77.434 77.434 0 0 1 3.499-2.375l.364-.24c.176-.117.352-.235.529-.344.201-.125.406-.24.61-.354.143-.08.286-.16.427-.244a71.768 71.768 0 0 1 1.903-1.098 70.518 70.518 0 0 1 1.856-.987c.641-.33 1.284-.651 1.93-.957.122-.058.242-.119.362-.181.164-.084.328-.167.493-.243.186-.085.373-.16.56-.234.137-.055.273-.109.41-.168a64.15 64.15 0 0 1 3.996-1.588 62.788 62.788 0 0 1 2.22-.742 59.93 59.93 0 0 1 1.829-.552 59.75 59.75 0 0 1 2.267-.58l.13-.031c.568-.136 1.136-.272 1.707-.39.771-.159 1.55-.29 2.328-.419l.378-.063c.483-.081.966-.162 1.452-.227a56.597 56.597 0 0 1 2.302-.245l.624-.06c.428-.042.855-.084 1.286-.111.782-.049 1.57-.066 2.358-.082l.784-.021c.373-.012.745-.025 1.123-.022.931.006 1.87.053 2.809.101.264.013.447.019.631.025.292.01.585.019.88.041 1.49.109 2.961.263 4.372.457 12.498 1.727 22.894 6.798 30.902 15.072l54.465 56.281a.75.75 0 1 1-1.079 1.043c-4.854-5.016-10.643-8.845-17.204-11.381-3.946-1.525-8.261-2.617-12.825-3.247a67.337 67.337 0 0 0-4.276-.448c-.276-.02-.549-.029-.823-.038l-.569-.022a61.555 61.555 0 0 0-2.829-.103c-.359-.004-.712.009-1.067.021l-.763.02c-.779.016-1.559.032-2.332.08-.412.026-.82.067-1.23.107l-.512.05c-.852.079-1.612.15-2.366.25-.468.063-.934.141-1.4.219l-.376.063c-.761.125-1.522.253-2.277.409-.543.112-1.083.241-1.623.37l-.163.039c-.741.177-1.48.361-2.216.568-.594.167-1.187.35-1.777.536-.727.229-1.451.468-2.171.726a61.622 61.622 0 0 0-3.9 1.55c-.595.26-1.189.526-1.78.806-.631.299-1.26.613-1.887.936-.607.312-1.213.632-1.816.966-.623.345-1.242.705-1.861 1.073a71.16 71.16 0 0 0-1.893 1.159 75.327 75.327 0 0 0-3.431 2.33l-.084.06c-.425.306-.851.612-1.274.93a81.622 81.622 0 0 0-2.118 1.656l-.39.311c-.269.214-.537.427-.804.649a90.742 90.742 0 0 0-2.485 2.162l-.35.307c-.144.125-.288.25-.431.382a99.477 99.477 0 0 0-3.288 3.16c-.1.1-.199.206-.298.312l-.285.299c-.84.859-1.834 1.886-2.834 2.99a96.33 96.33 0 0 0-2.991 3.482c-.209.254-.417.515-.625.776l-.271.34a112.36 112.36 0 0 0-3.382 4.464c-.554.77-1.104 1.554-1.65 2.353-.475.692-.946 1.392-1.414 2.105a135.443 135.443 0 0 0-2.258 3.536l-.208.333a150.675 150.675 0 0 0-2.641 4.53l-.524.934a174.148 174.148 0 0 0-2.474 4.632c-.184.357-.365.724-.547 1.091l-.328.658a197.787 197.787 0 0 0-1.778 3.625c-.296.621-.587 1.254-.879 1.887l-.109.236a217.103 217.103 0 0 0-4.169 9.62l-.169.413c-.254.622-.508 1.244-.759 1.878a270.17 270.17 0 0 0-1.949 5.074l-.374.984a300.44 300.44 0 0 0-2.261 6.367c-.129.376-.256.758-.384 1.14l-.235.704a330.468 330.468 0 0 0-2.327 7.167 364.167 364.167 0 0 0-1.537 5.053l-.209.698c-.133.442-.265.884-.396 1.333a402.962 402.962 0 0 0-2.036 7.227l-.272 1.03a470.336 470.336 0 0 0-1.701 6.517c-.152.601-.302 1.209-.453 1.817l-.165.666a496.136 496.136 0 0 0-1.7 7.031c-10.818 46.491-12.325 81.812-4.476 104.982a88.875 88.875 0 0 0 1.293 3.562l.245.599c.35.88.71 1.746 1.083 2.594.115.262.233.52.351.777l.107.235a68.37 68.37 0 0 0 1.007 2.107l.089.18c.132.266.264.531.399.792.203.392.415.774.626 1.156l.186.336c.348.631.698 1.258 1.061 1.868.271.454.549.896.828 1.338.368.584.742 1.161 1.125 1.724.33.484.664.961 1.005 1.43.262.36.524.72.793 1.071.387.507.785.999 1.186 1.486l.193.235c.203.248.406.496.613.737.726.84 1.336 1.513 1.916 2.114l.026.027a.75.75 0 0 1-.018 1.06.738.738 0 0 1-.516.207zM681.718 182.12l.508.552a99.004 99.004 0 0 0-3.171 3.057 15.51 15.51 0 0 0-.304.319l-.28.295a107.04 107.04 0 0 0-2.462 2.582l-.368.405a96.274 96.274 0 0 0-2.992 3.482 53.82 53.82 0 0 0-.653.812l-.659.82c-.25.307-.5.614-.746.933-.141.183-.28.376-.419.568-.117.162-.233.323-.352.48a123.025 123.025 0 0 0-3.1 4.322c-.472.69-.943 1.388-1.409 2.1-.109.166-.219.327-.329.488-.131.192-.263.385-.392.586-.521.81-1.035 1.642-1.548 2.478l-.197.315a152.95 152.95 0 0 0-2.646 4.538l-.521.93a162.225 162.225 0 0 0-2.239 4.162l-.236.471c-.189.368-.376.745-.563 1.122l-.315.634a193.802 193.802 0 0 0-1.774 3.618c-.3.63-.596 1.274-.893 1.917l-.098.212a216.505 216.505 0 0 0-4.168 9.619l-.21.514c-.239.587-.479 1.174-.716 1.772l-.399.988c-.525 1.341-1.039 2.717-1.554 4.095l-.37.975a298.026 298.026 0 0 0-2.262 6.37c-.133.387-.264.781-.396 1.174l-.223.667a326.8 326.8 0 0 0-2.327 7.17 365.613 365.613 0 0 0-1.54 5.063l-.218.729c-.128.427-.256.853-.382 1.287a417.821 417.821 0 0 0-2.04 7.239l-.261.99a449.21 449.21 0 0 0-1.712 6.558c-.161.635-.319 1.277-.478 1.92l-.395 1.584c-.152.604-.304 1.207-.452 1.823a541.103 541.103 0 0 0-.991 4.181c-10.818 46.491-12.324 81.812-4.476 104.982l.19.557a87.565 87.565 0 0 0 1.104 3.006l.243.596c.35.881.71 1.748 1.084 2.597.115.26.232.517.35.774l.108.238c.327.714.663 1.417 1.007 2.109l.062.125c.141.283.281.566.425.844l.276.549c.094.178.194.348.293.519.083.141.165.282.244.427.348.63.698 1.258 1.061 1.867.271.454.548.896.828 1.339.368.583.741 1.159 1.124 1.721.068.101.135.205.201.309.067.106.134.212.205.313.108.155.222.305.335.455l.266.356c.261.359.522.718.791 1.068.389.508.787 1.001 1.189 1.49l.175.213c.208.254.415.508.628.754l.286.345c.539.613 1.089 1.21 1.651 1.79l45.689 47.213a65.05 65.05 0 0 1-1.277-2.23l-.184-.333c-.218-.394-.437-.788-.646-1.193-.139-.269-.274-.542-.41-.814l-.089-.179a71.376 71.376 0 0 1-1.028-2.153l-.107-.234a53.326 53.326 0 0 1-.36-.798 78.5 78.5 0 0 1-1.104-2.644l-.249-.609a87.6 87.6 0 0 1-1.316-3.625c-7.939-23.438-6.447-59.036 4.436-105.802a502.471 502.471 0 0 1 1.705-7.052l.165-.665c.151-.611.302-1.222.455-1.825a463.194 463.194 0 0 1 1.707-6.539l.272-1.033c.629-2.317 1.297-4.69 2.043-7.253.132-.453.266-.899.4-1.345l.208-.694a367.06 367.06 0 0 1 2.266-7.361c.531-1.662 1.07-3.297 1.614-4.911l.234-.699c.128-.386.257-.773.388-1.154a309.138 309.138 0 0 1 2.272-6.398l.375-.99a263.803 263.803 0 0 1 1.96-5.102c.253-.639.509-1.265.765-1.892l.168-.412a240.308 240.308 0 0 1 2.575-6.091 220.99 220.99 0 0 1 1.622-3.592l.108-.235c.294-.639.588-1.278.887-1.904.59-1.241 1.189-2.452 1.791-3.653l.324-.652c.185-.374.37-.747.557-1.111.812-1.578 1.652-3.15 2.496-4.673l.487-.869a156.178 156.178 0 0 1 2.709-4.649l.209-.335a136.749 136.749 0 0 1 2.283-3.575c.473-.722.95-1.43 1.43-2.13a114.213 114.213 0 0 1 5.099-6.906l.268-.336a97.38 97.38 0 0 1 3.678-4.33 108.156 108.156 0 0 1 2.874-3.031l.263-.276c.109-.116.217-.232.327-.342 1.078-1.084 2.2-2.164 3.337-3.208.153-.141.308-.275.462-.409l.331-.291a93.777 93.777 0 0 1 2.526-2.198c.275-.23.553-.451.831-.671l.384-.306a84.051 84.051 0 0 1 2.156-1.685c.431-.324.866-.637 1.301-.949l.084-.061a79.958 79.958 0 0 1 2.075-1.445c.473-.317.948-.628 1.424-.932.642-.409 1.286-.8 1.932-1.184a71.675 71.675 0 0 1 1.902-1.097 69.203 69.203 0 0 1 1.857-.987c.641-.33 1.284-.651 1.93-.957a66.138 66.138 0 0 1 4.012-1.735 62.75 62.75 0 0 1 1.806-.679c.738-.264 1.481-.51 2.226-.744a60.332 60.332 0 0 1 1.822-.55 62.58 62.58 0 0 1 2.273-.583l.163-.039c.556-.133 1.11-.265 1.669-.381.775-.16 1.556-.291 2.336-.42l.373-.062a44.07 44.07 0 0 1 1.449-.227 58.573 58.573 0 0 1 2.334-.248l.596-.057c.426-.042.853-.084 1.282-.111.795-.05 1.595-.066 2.396-.083l.746-.02c.374-.012.748-.025 1.124-.021a61.33 61.33 0 0 1 2.833.102l.605.024c.293.01.587.019.883.041 1.484.108 2.956.262 4.373.458 4.679.646 9.106 1.768 13.161 3.334a49.884 49.884 0 0 1 8.259 4.096l-46.062-47.597c-7.769-8.028-17.872-12.949-30.029-14.629a67.11 67.11 0 0 0-4.277-.447c-.274-.02-.547-.029-.818-.038-.193-.006-.386-.012-.58-.022-.997-.051-1.913-.098-2.821-.103-.359-.005-.712.01-1.066.021l-.801.021c-.767.016-1.534.031-2.295.079-.412.026-.823.067-1.233.107l-.632.061c-.75.07-1.499.139-2.242.239-.47.062-.937.141-1.403.219l-.382.064a58.31 58.31 0 0 0-2.27.408c-.556.115-1.108.247-1.66.379l-.131.031a58.65 58.65 0 0 0-2.21.566 56.95 56.95 0 0 0-1.783.538c-.725.228-1.448.467-2.167.724a63.128 63.128 0 0 0-3.9 1.55c-.151.066-.303.127-.455.187-.165.066-.33.131-.493.206-.145.066-.289.14-.433.214a13.74 13.74 0 0 1-.403.201 64.71 64.71 0 0 0-1.886.935c-.607.312-1.213.631-1.815.965-.624.345-1.244.706-1.863 1.075-.153.091-.307.177-.46.263-.186.104-.372.208-.556.323-.164.101-.324.208-.485.315l-.39.257c-.467.298-.933.604-1.396.914-.681.457-1.358.931-2.034 1.416l-.09.065c-.424.305-.849.61-1.271.927l-.307.223c-.111.079-.222.158-.332.243-.322.248-.642.509-.962.771l-.895.721c-.273.217-.545.434-.816.659a90.649 90.649 0 0 0-2.481 2.158l-.347.304c-.146.127-.292.253-.437.386z" fill="#111"/><path d="M966.197 248.788c-.474-2.11-.976-4.195-1.5-6.259-.174-.685-.365-1.354-.545-2.034-.362-1.37-.723-2.741-1.108-4.091-.229-.802-.474-1.588-.711-2.383-.359-1.206-.716-2.413-1.093-3.602-.267-.84-.548-1.666-.824-2.497-.281-.849-.55-1.71-.841-2.55-.082-.236-.174-.463-.257-.699a197.15 197.15 0 0 0-1.657-4.514c-.235-.621-.458-1.253-.699-1.868a187.261 187.261 0 0 0-2.543-6.199c-.142-.329-.296-.647-.439-.974a179.939 179.939 0 0 0-2.302-5.049c-.328-.689-.673-1.362-1.008-2.044a175.16 175.16 0 0 0-1.93-3.824c-.14-.267-.268-.545-.409-.811-.399-.753-.818-1.489-1.227-2.233-.314-.572-.623-1.15-.943-1.717a164.576 164.576 0 0 0-2.291-3.92c-.177-.295-.346-.597-.525-.89a163.887 163.887 0 0 0-2.96-4.67c-.289-.44-.591-.869-.884-1.306-.585-.872-1.164-1.749-1.764-2.606-.104-.149-.219-.288-.324-.437a159.413 159.413 0 0 0-4.538-6.118c-.336-.43-.683-.849-1.022-1.276a157.831 157.831 0 0 0-4.103-4.938c-.247-.285-.475-.587-.723-.87-.151-.172-.315-.334-.467-.506a155.36 155.36 0 0 0-4.609-4.996l-54.465-56.281a156.52 156.52 0 0 1 4.609 4.996c.402.453.793.918 1.189 1.375 1.4 1.617 2.768 3.262 4.103 4.938.339.426.687.846 1.022 1.276a159.344 159.344 0 0 1 4.538 6.116c.71 1.007 1.406 2.027 2.095 3.053.291.433.59.859.877 1.296a162.568 162.568 0 0 1 2.961 4.671c.178.293.347.594.523.888a162.998 162.998 0 0 1 2.293 3.925c.319.565.626 1.139.94 1.709a170.7 170.7 0 0 1 1.64 3.051c.66 1.26 1.298 2.54 1.93 3.824.335.681.68 1.354 1.007 2.041.792 1.662 1.556 3.35 2.304 5.052.143.326.297.644.439.972.88 2.037 1.726 4.105 2.543 6.199.24.616.464 1.247.698 1.868a198.904 198.904 0 0 1 1.657 4.514c.376 1.073.737 2.161 1.097 3.249.276.831.557 1.657.824 2.497.378 1.19.735 2.399 1.094 3.606.236.793.481 1.578.709 2.379.386 1.353.749 2.728 1.112 4.102.179.676.368 1.342.542 2.023.525 2.065 1.027 4.15 1.501 6.26 8.791 39.195 7.324 84.015-4.404 134.416a451.057 451.057 0 0 1-1.949 7.991c-.154.609-.301 1.223-.457 1.829a432.194 432.194 0 0 1-2.182 8.17c-.179.644-.365 1.279-.546 1.92a417.894 417.894 0 0 1-2.554 8.676 399.563 399.563 0 0 1-2.163 6.839c-.118.36-.23.727-.349 1.087a380.28 380.28 0 0 1-2.632 7.684c-.245.694-.497 1.381-.746 2.071a359.472 359.472 0 0 1-2.125 5.745c-.272.718-.543 1.437-.819 2.15-.566 1.464-1.152 2.906-1.734 4.352-.549 1.365-1.095 2.733-1.657 4.082-.565 1.354-1.147 2.69-1.726 4.028-.578 1.336-1.152 2.676-1.743 3.996-.592 1.321-1.201 2.624-1.807 3.929-.605 1.304-1.207 2.612-1.826 3.9-.621 1.293-1.259 2.567-1.894 3.844-.632 1.271-1.26 2.546-1.906 3.802a302.769 302.769 0 0 1-2.832 5.37c-.247.457-.486.923-.734 1.378a299.483 299.483 0 0 1-3.77 6.688c-.346.596-.703 1.18-1.052 1.772a287.534 287.534 0 0 1-2.889 4.799c-.467.757-.94 1.507-1.413 2.258a286.548 286.548 0 0 1-5.896 8.957c-.549.802-1.092 1.612-1.648 2.406a270.11 270.11 0 0 1-5.431 7.5 281.359 281.359 0 0 1-4.225 5.445c-.317.4-.63.806-.948 1.203a274.438 274.438 0 0 1-4.461 5.422c-.354.42-.713.83-1.069 1.246a262.466 262.466 0 0 1-3.624 4.15c-.44.493-.879.987-1.321 1.475a248.965 248.965 0 0 1-4.605 4.964c-.119.124-.24.244-.359.369a243.44 243.44 0 0 1-5.68 5.717 235.3 235.3 0 0 1-4.74 4.509l-.124.116a228.667 228.667 0 0 1-6.239 5.525 224.778 224.778 0 0 1-4.562 3.807c-.182.147-.361.3-.543.447a218.797 218.797 0 0 1-5.07 3.952c-.502.38-1.006.753-1.51 1.128a213.662 213.662 0 0 1-4.052 2.942c-.468.332-.934.669-1.404.996a215.134 215.134 0 0 1-5.35 3.612c-.304.198-.612.387-.917.583a194.48 194.48 0 0 1-6.836 4.208 199.17 199.17 0 0 1-9.578 5.315c-.815.424-1.63.85-2.451 1.263a205.84 205.84 0 0 1-3.808 1.857c-.773.369-1.543.746-2.32 1.105a202.401 202.401 0 0 1-5.947 2.643c-35.239 14.95-72.404 19.703-111.518 14.301-39.569-5.465-72.503-19.899-98.807-43.349a157.23 157.23 0 0 1-8.443-8.097l54.465 56.281a156.845 156.845 0 0 0 8.444 8.097c26.304 23.45 59.238 37.884 98.807 43.349 39.115 5.402 76.28.649 111.519-14.301a202.625 202.625 0 0 0 5.249-2.311c.233-.107.462-.224.695-.331.781-.361 1.554-.739 2.331-1.11a198.91 198.91 0 0 0 3.801-1.853c.819-.412 1.633-.837 2.447-1.261a196.467 196.467 0 0 0 9.584-5.319c.801-.473 1.602-.946 2.397-1.43.387-.235.779-.457 1.164-.695 1.101-.68 2.191-1.384 3.281-2.087.301-.194.605-.38.906-.576 1.8-1.173 3.583-2.381 5.353-3.614.47-.327.934-.663 1.402-.994 1.359-.963 2.71-1.944 4.052-2.943.505-.376 1.011-.75 1.513-1.131.32-.243.645-.476.965-.721a217.507 217.507 0 0 0 4.103-3.229c.183-.147.363-.3.545-.448a224.295 224.295 0 0 0 4.557-3.803 230.67 230.67 0 0 0 6.245-5.529l.111-.105a239.432 239.432 0 0 0 6.002-5.749 241.627 241.627 0 0 0 4.436-4.495c.116-.121.234-.238.35-.359a251.786 251.786 0 0 0 3.682-3.933c.311-.34.616-.692.927-1.034.44-.486.878-.978 1.316-1.469a272.574 272.574 0 0 0 3.625-4.151c.357-.418.717-.829 1.073-1.251a271.344 271.344 0 0 0 4.459-5.42c.318-.398.632-.805.949-1.205.749-.945 1.501-1.884 2.242-2.845.663-.859 1.323-1.725 1.981-2.597a268.622 268.622 0 0 0 5.431-7.5c.556-.793 1.097-1.602 1.646-2.404a273.29 273.29 0 0 0 3.635-5.436c.297-.457.61-.895.905-1.354.458-.714.901-1.445 1.354-2.165.474-.753.949-1.505 1.417-2.265a295.31 295.31 0 0 0 2.886-4.794c.35-.593.707-1.178 1.053-1.775a295.66 295.66 0 0 0 3.771-6.689c.248-.454.486-.918.733-1.374.788-1.46 1.576-2.918 2.345-4.399.165-.319.321-.648.485-.967.65-1.262 1.281-2.544 1.917-3.822.632-1.271 1.267-2.538 1.885-3.824.619-1.29 1.222-2.599 1.828-3.904.606-1.307 1.216-2.61 1.808-3.933.59-1.317 1.163-2.654 1.74-3.988.58-1.34 1.163-2.677 1.728-4.033.563-1.35 1.108-2.718 1.658-4.082.41-1.02.836-2.023 1.239-3.052.169-.43.329-.87.496-1.301.275-.71.544-1.427.815-2.141a364.985 364.985 0 0 0 2.13-5.76c.248-.688.499-1.372.743-2.063a374.35 374.35 0 0 0 2.632-7.686c.119-.359.231-.726.349-1.086a397.124 397.124 0 0 0 2.882-9.215 416.628 416.628 0 0 0 1.838-6.313c.18-.636.364-1.266.541-1.904.75-2.702 1.478-5.428 2.184-8.179.154-.599.301-1.208.452-1.81.364-1.443.732-2.881 1.084-4.338.294-1.218.584-2.44.869-3.667 11.727-50.401 13.193-95.222 4.402-134.416z" fill="#b0c3ff"/><path d="M732.63 601.608c-10.115 0-20.345-.712-30.68-2.139-39.552-5.462-72.929-20.109-99.204-43.532a158.674 158.674 0 0 1-8.484-8.136l-54.465-56.281a.75.75 0 1 1 1.079-1.043 156.873 156.873 0 0 0 8.403 8.059c26.049 23.222 59.159 37.745 98.412 43.166 38.813 5.361 76.201.567 111.123-14.249 1.802-.763 3.74-1.625 5.926-2.634.529-.244 1.054-.497 1.579-.75l.733-.352a198.11 198.11 0 0 0 3.793-1.85c.723-.363 1.439-.736 2.156-1.109l.286-.149a204.454 204.454 0 0 0 3.581-1.905 208.093 208.093 0 0 0 5.963-3.391 200.66 200.66 0 0 0 2.39-1.426 203.577 203.577 0 0 0 4.42-2.766l.913-.58a208.303 208.303 0 0 0 5.332-3.599c.307-.213.611-.431.916-.648l.484-.344a216.68 216.68 0 0 0 4.038-2.932l.249-.185c.419-.312.838-.624 1.256-.939a214.418 214.418 0 0 0 5.053-3.938l.541-.446a218.913 218.913 0 0 0 4.546-3.794 226.646 226.646 0 0 0 6.219-5.506l.632.436-.509-.551a235.627 235.627 0 0 0 5.977-5.726 244.762 244.762 0 0 0 4.411-4.469l.359-.368a249.262 249.262 0 0 0 5.871-6.378 255.16 255.16 0 0 0 3.649-4.179l.424-.493c.215-.249.43-.498.643-.75a273.645 273.645 0 0 0 4.448-5.407c.19-.237.377-.476.565-.716l.38-.483a278.516 278.516 0 0 0 4.214-5.431 268.141 268.141 0 0 0 5.415-7.479c.367-.524.728-1.055 1.089-1.586l.554-.813a280.801 280.801 0 0 0 5.88-8.933l.118-.188c.432-.686.864-1.373 1.292-2.065.974-1.58 1.932-3.178 2.881-4.787l.429-.72c.208-.348.417-.696.621-1.048a299.4 299.4 0 0 0 3.76-6.67c.133-.244.264-.492.395-.74l.338-.635c.955-1.77 1.897-3.554 2.824-5.356.538-1.045 1.063-2.103 1.588-3.161l.62-1.248c.531-1.068 1.063-2.136 1.583-3.218.515-1.07 1.017-2.154 1.519-3.237l.58-1.249a273.228 273.228 0 0 0 1.526-3.325c.491-1.097.971-2.208 1.451-3.318l.555-1.284c.489-1.13.979-2.26 1.457-3.404a264.99 264.99 0 0 0 1.397-3.437l.567-1.411c.478-1.184.955-2.369 1.418-3.568.208-.535.412-1.073.615-1.612l.203-.534c.72-1.896 1.426-3.808 2.121-5.733l.256-.709c.164-.451.328-.903.488-1.358a377.316 377.316 0 0 0 2.626-7.669l.349-1.086a386.739 386.739 0 0 0 2.159-6.826c.242-.789.48-1.581.719-2.375.624-2.08 1.233-4.175 1.83-6.285l.544-1.917a425.374 425.374 0 0 0 2.178-8.155l.456-1.826a462.202 462.202 0 0 0 1.947-7.978c11.648-50.058 13.129-95.17 4.402-134.082-.452-2.011-.955-4.11-1.496-6.24a70.754 70.754 0 0 0-.315-1.185l-.224-.832c-.375-1.416-.73-2.762-1.108-4.088-.147-.516-.302-1.027-.456-1.537l-.337-1.124a192.476 192.476 0 0 0-1.004-3.302 129.48 129.48 0 0 0-.578-1.76l-.243-.728c-.359-1.083-.718-2.167-1.093-3.236a191.071 191.071 0 0 0-1.65-4.497l-.284-.765a61.94 61.94 0 0 0-.411-1.096 188.224 188.224 0 0 0-2.533-6.175c-.071-.164-.146-.326-.22-.489-.073-.16-.146-.319-.217-.481a177.328 177.328 0 0 0-2.293-5.029c-.213-.447-.433-.887-.652-1.328l-.351-.705a169.37 169.37 0 0 0-1.922-3.808 165.861 165.861 0 0 0-1.632-3.038l-.305-.559a89.986 89.986 0 0 0-.63-1.143 170.525 170.525 0 0 0-2.283-3.907l-.241-.41c-.093-.159-.185-.318-.28-.474a163.63 163.63 0 0 0-2.947-4.649c-.167-.255-.339-.506-.511-.757l-.362-.533a164.647 164.647 0 0 0-2.085-3.039 158.467 158.467 0 0 0-4.516-6.087c-.198-.253-.4-.503-.602-.753l-.416-.517a158.585 158.585 0 0 0-4.083-4.914l-.413-.48c-.255-.298-.51-.595-.771-.888a154.26 154.26 0 0 0-4.586-4.972.75.75 0 1 1 1.079-1.043l54.465 56.281a154.793 154.793 0 0 1 4.63 5.021l.21.227c.088.093.175.186.259.281.135.154.265.313.394.473.109.135.218.27.332.4a159.183 159.183 0 0 1 4.124 4.962l.406.505c.208.258.417.515.621.777a161.733 161.733 0 0 1 4.56 6.146l.144.194c.062.081.123.162.182.246.469.669.924 1.35 1.379 2.031l.738 1.093c.183.267.365.534.543.805 1.03 1.567 2.03 3.146 2.973 4.691.101.165.198.332.295.499l.232.396a167.446 167.446 0 0 1 2.301 3.937c.222.393.438.79.654 1.188l.695 1.263c.28.503.56 1.006.83 1.517.078.146.152.297.227.447.061.123.122.246.185.367a168.108 168.108 0 0 1 1.938 3.841l.365.734c.218.438.437.875.648 1.319a182.012 182.012 0 0 1 2.312 5.07l.195.431c.083.181.167.363.246.548a189.253 189.253 0 0 1 2.553 6.223c.143.365.279.736.416 1.106l.286.769c.567 1.5 1.127 3.005 1.663 4.532l.116.314c.048.128.096.256.142.387.185.533.36 1.074.536 1.615l.547 1.661c.198.594.397 1.188.588 1.79.343 1.08.668 2.173.994 3.268l.354 1.179c.157.518.313 1.036.463 1.56.376 1.321.73 2.661 1.084 4.001l.246.912c.112.409.223.818.329 1.233a232.614 232.614 0 0 1 1.505 6.279c8.777 39.133 7.295 84.469-4.405 134.75a448.218 448.218 0 0 1-.871 3.674c-.281 1.164-.573 2.317-.864 3.47l-.674 2.689a437.864 437.864 0 0 1-2.188 8.193l-.542 1.907a406.79 406.79 0 0 1-4.728 15.556l-.349 1.088a377.06 377.06 0 0 1-2.638 7.701c-.167.472-.337.941-.507 1.41l-.238.658a376.635 376.635 0 0 1-2.134 5.771l-.226.596c-.196.518-.393 1.036-.592 1.55l-.223.586c-.091.24-.181.481-.274.719-.242.618-.493 1.228-.743 1.837-.167.406-.333.812-.498 1.22l-.287.713a270.48 270.48 0 0 1-1.375 3.378 269.014 269.014 0 0 1-1.437 3.359l-.555 1.283c-.491 1.137-.981 2.273-1.484 3.396a256.986 256.986 0 0 1-1.539 3.353l-.544 1.172c-.517 1.115-1.033 2.229-1.562 3.331-.51 1.061-1.031 2.108-1.552 3.156l-.676 1.361a243.264 243.264 0 0 1-1.582 3.148l-.221.443c-.087.177-.175.354-.265.527a282.108 282.108 0 0 1-2.212 4.154l-.467.875c-.134.254-.269.508-.406.759a297.631 297.631 0 0 1-3.78 6.706c-.209.361-.423.718-.636 1.074l-.42.706a289.798 289.798 0 0 1-2.894 4.806 236.41 236.41 0 0 1-1.348 2.156l-.61.977c-.271.438-.543.876-.82 1.308-.16.248-.324.49-.489.732-.141.207-.282.415-.419.626a270.632 270.632 0 0 1-3.646 5.451l-.517.76c-.376.553-.751 1.105-1.133 1.651a269.048 269.048 0 0 1-5.446 7.521c-.66.874-1.322 1.742-1.986 2.604-.58.751-1.167 1.49-1.752 2.228l-1.448 1.833a278.168 278.168 0 0 1-4.471 5.435l-1.075 1.253a274.974 274.974 0 0 1-3.636 4.164l-.235.264c-.36.404-.721.808-1.083 1.209l-.428.479c-.167.188-.333.375-.501.559a263.454 263.454 0 0 1-3.694 3.946l-.35.359a240.258 240.258 0 0 1-4.45 4.509c-.416.412-.834.823-1.253 1.232a232.765 232.765 0 0 1-4.768 4.536l-.115.108a223.49 223.49 0 0 1-4.959 4.423c-.434.377-.868.749-1.303 1.122a219.7 219.7 0 0 1-4.572 3.815l-.546.449a215.8 215.8 0 0 1-4.117 3.24c-.18.138-.362.272-.543.407l-.424.317c-.382.289-.765.574-1.148.859l-.371.276a218.593 218.593 0 0 1-4.067 2.954l-.495.352c-.303.217-.606.433-.912.646a211.144 211.144 0 0 1-5.372 3.627l-1.011.643c-1.06.683-2.121 1.367-3.192 2.029-.216.134-.435.262-.653.391l-.516.307c-.797.486-1.601.961-2.405 1.436a211.705 211.705 0 0 1-3.537 2.045 198.396 198.396 0 0 1-6.082 3.294l-.209.109c-.747.389-1.494.778-2.246 1.156-1.264.636-2.539 1.25-3.815 1.86l-.696.334c-.546.263-1.093.526-1.643.78l-.697.332a206.259 206.259 0 0 1-5.269 2.32c-25.885 10.973-53.105 16.489-81.245 16.489zm-176.554-95.424 39.265 40.574a157.597 157.597 0 0 0 8.403 8.059c26.049 23.222 59.159 37.745 98.411 43.166 38.814 5.361 76.202.566 111.123-14.249a206.731 206.731 0 0 0 5.23-2.302l.693-.33c.543-.25 1.082-.51 1.621-.77l.7-.336a200.522 200.522 0 0 0 3.787-1.846c.746-.375 1.488-.761 2.229-1.147l.209-.109a195.545 195.545 0 0 0 9.549-5.3 205.88 205.88 0 0 0 2.388-1.425l.534-.318c.209-.123.419-.247.626-.375 1.063-.656 2.116-1.335 3.168-2.013l1.004-.639a205.55 205.55 0 0 0 5.334-3.601c.301-.209.599-.422.898-.635l.499-.355a212.197 212.197 0 0 0 4.038-2.932l.371-.276c.38-.282.759-.565 1.138-.851l.438-.327c.175-.129.35-.259.523-.392a215.968 215.968 0 0 0 4.089-3.217l.543-.447c1.455-1.18 2.94-2.42 4.541-3.79a223.097 223.097 0 0 0 6.193-5.482l.603.463-.517-.543a237.646 237.646 0 0 0 6.039-5.785 243.552 243.552 0 0 0 4.423-4.481l.349-.357a254.877 254.877 0 0 0 3.671-3.922c.163-.178.325-.36.486-.542l.438-.49c.359-.397.717-.799 1.076-1.2l.235-.264c1.214-1.36 2.418-2.74 3.615-4.139l1.07-1.247a271.554 271.554 0 0 0 4.446-5.405l1.444-1.828c.582-.733 1.164-1.466 1.74-2.212.662-.857 1.32-1.721 1.976-2.591a267.994 267.994 0 0 0 5.415-7.478c.378-.54.75-1.086 1.121-1.633l.52-.764a270.49 270.49 0 0 0 3.626-5.422c.143-.219.29-.436.436-.651.157-.231.314-.462.467-.699.273-.425.54-.856.808-1.288l.616-.987a233.579 233.579 0 0 0 4.218-6.925l.425-.713c.21-.351.42-.702.626-1.058a302.58 302.58 0 0 0 3.761-6.672c.134-.245.265-.492.396-.74l.474-.887c.74-1.371 1.479-2.741 2.201-4.132.085-.165.168-.333.251-.5l.232-.464c.532-1.034 1.052-2.082 1.573-3.13l.677-1.362c.518-1.042 1.036-2.083 1.542-3.137.526-1.095 1.04-2.203 1.553-3.312l.544-1.174c.514-1.107 1.028-2.213 1.53-3.334.5-1.117.988-2.247 1.476-3.377l.556-1.285c.48-1.109.961-2.218 1.429-3.341.464-1.112.916-2.236 1.367-3.36l.287-.714c.166-.412.334-.822.502-1.231.247-.602.495-1.203.734-1.814.091-.232.179-.466.267-.7l.228-.6c.198-.51.393-1.025.587-1.54l.226-.597a350.39 350.39 0 0 0 2.125-5.748l.239-.661c.169-.465.337-.93.503-1.398.973-2.751 1.833-5.26 2.627-7.671l.348-1.084a398.396 398.396 0 0 0 4.711-15.5l.541-1.9a434.853 434.853 0 0 0 2.18-8.165l.673-2.683c.29-1.148.58-2.295.86-3.454.293-1.216.583-2.436.868-3.661 11.648-50.057 13.128-95.173 4.402-134.083a230.606 230.606 0 0 0-1.496-6.239 70.835 70.835 0 0 0-.321-1.207l-.249-.924c-.352-1.331-.703-2.662-1.077-3.973-.147-.517-.302-1.027-.456-1.537l-.355-1.185a185.547 185.547 0 0 0-.986-3.242c-.188-.594-.385-1.181-.581-1.768l-.552-1.674c-.172-.531-.344-1.063-.525-1.586l-.256-.695a194.115 194.115 0 0 0-1.65-4.499l-.291-.781a60.145 60.145 0 0 0-.405-1.08 186.28 186.28 0 0 0-2.533-6.174c-.075-.175-.154-.345-.232-.516l-.205-.454a176.159 176.159 0 0 0-2.293-5.028 86.285 86.285 0 0 0-.636-1.294l-.368-.742a178.229 178.229 0 0 0-1.921-3.808c-.069-.131-.135-.265-.201-.399a14.146 14.146 0 0 0-.206-.408c-.267-.503-.542-.997-.816-1.491l-.702-1.274a77.176 77.176 0 0 0-.643-1.167 164.467 164.467 0 0 0-2.28-3.902l-.243-.413a27.973 27.973 0 0 0-.28-.473 165.018 165.018 0 0 0-2.946-4.648c-.173-.263-.35-.522-.527-.781l-.747-1.107c-.449-.672-.899-1.344-1.361-2.005l-.146-.197a8.77 8.77 0 0 1-.178-.24 158.638 158.638 0 0 0-4.516-6.087c-.199-.255-.402-.505-.604-.756l-.414-.514a156.086 156.086 0 0 0-4.083-4.914c-.124-.143-.244-.291-.364-.438-.117-.144-.233-.289-.356-.428-.072-.082-.147-.161-.222-.241a11.909 11.909 0 0 1-.242-.262 153.894 153.894 0 0 0-4.586-4.972l-39.473-40.789c.547.747 1.088 1.5 1.621 2.255a164.305 164.305 0 0 1 2.104 3.067l.355.522c.177.259.354.517.527.78a167.591 167.591 0 0 1 2.975 4.693c.1.165.198.333.295.5l.23.392a164.415 164.415 0 0 1 2.303 3.942c.217.385.429.774.641 1.163l.303.554a162.839 162.839 0 0 1 1.647 3.065 170.159 170.159 0 0 1 1.938 3.841l.347.698c.224.448.448.897.665 1.353a177.88 177.88 0 0 1 2.313 5.073l.207.457c.079.172.158.344.233.519a191.27 191.27 0 0 1 2.554 6.225c.145.371.283.747.421 1.123l.28.753a198.719 198.719 0 0 1 1.663 4.532c.377 1.077.74 2.169 1.102 3.261l.241.724c.198.591.396 1.183.585 1.781.349 1.099.681 2.213 1.012 3.328l.335 1.118c.157.518.313 1.036.463 1.56.381 1.335.739 2.691 1.097 4.046l.24.89c.109.401.219.803.322 1.21a235.518 235.518 0 0 1 1.506 6.281c8.777 39.134 7.294 84.47-4.405 134.75a454.692 454.692 0 0 1-1.953 8.005l-.457 1.832a433.924 433.924 0 0 1-2.186 8.184l-.546 1.923a404.862 404.862 0 0 1-2.558 8.693 404.039 404.039 0 0 1-2.167 6.853l-.35 1.089a378.37 378.37 0 0 1-2.637 7.699c-.162.458-.327.914-.492 1.369l-.255.706a370.971 370.971 0 0 1-2.129 5.757l-.202.533c-.205.542-.411 1.083-.619 1.622-.466 1.205-.946 2.396-1.426 3.587l-.567 1.409c-.465 1.156-.929 2.313-1.405 3.455-.48 1.15-.972 2.287-1.464 3.423l-.555 1.282c-.482 1.117-.964 2.234-1.458 3.337-.504 1.124-1.02 2.234-1.535 3.344l-.579 1.248c-.505 1.09-1.01 2.179-1.527 3.256-.522 1.088-1.057 2.162-1.592 3.237l-.62 1.247a241.91 241.91 0 0 1-1.598 3.18 310.99 310.99 0 0 1-2.838 5.383l-.332.623c-.134.254-.268.508-.405.759a300.728 300.728 0 0 1-3.779 6.705c-.208.358-.419.711-.63 1.064l-.424.712a293.218 293.218 0 0 1-2.896 4.812c-.43.697-.865 1.387-1.299 2.077l-.118.187a276.807 276.807 0 0 1-2.271 3.536 274.89 274.89 0 0 1-3.642 5.445l-.551.809c-.365.537-.73 1.074-1.101 1.604a272.046 272.046 0 0 1-5.446 7.521 285.562 285.562 0 0 1-4.236 5.459l-.375.477c-.191.244-.382.488-.576.729a270.28 270.28 0 0 1-4.473 5.436c-.216.256-.435.509-.653.762l-.419.487a258.905 258.905 0 0 1-3.634 4.162c-.465.521-.894 1.003-1.325 1.479a252.058 252.058 0 0 1-4.618 4.978l-.36.369a244.507 244.507 0 0 1-4.438 4.497 241.53 241.53 0 0 1-6.014 5.762l-.124.116a227.114 227.114 0 0 1-4.965 4.427 221.88 221.88 0 0 1-5.873 4.936l-.544.448a217.436 217.436 0 0 1-5.088 3.965c-.421.319-.844.633-1.267.948l-.249.185a219.733 219.733 0 0 1-4.066 2.953l-.479.342c-.309.221-.618.441-.93.658a210.47 210.47 0 0 1-5.37 3.625c-.172.112-.346.222-.52.331l-.4.253a206.6 206.6 0 0 1-4.453 2.786c-.799.487-1.603.962-2.407 1.437a207.156 207.156 0 0 1-6.006 3.416c-1.197.653-2.4 1.291-3.608 1.919l-.286.149c-.723.376-1.446.752-2.174 1.118a207.276 207.276 0 0 1-3.821 1.864l-.729.349c-.532.256-1.064.512-1.601.76a204.569 204.569 0 0 1-5.969 2.653c-35.173 14.922-72.826 19.752-111.913 14.354-35.742-4.935-66.44-17.369-91.411-37.003z" fill="#111"/><path d="m1344.246 145.533 54.465 56.282-251.598 247.734-54.465-56.282z" fill="#b0c3ff"/><path d="M1147.113 450.299h-.009a.748.748 0 0 1-.53-.229l-54.465-56.281a.75.75 0 0 1 .013-1.056l251.599-247.734a.697.697 0 0 1 .536-.216c.2.002.391.085.53.229l54.465 56.281a.75.75 0 0 1-.013 1.056L1147.64 450.083a.754.754 0 0 1-.527.216zm-53.409-57.019 53.422 55.204 250.529-246.681-53.421-55.203z" fill="#111"/><path d="m1157.872 510.709 54.465 56.282-243.954-33.693-54.465-56.281z" fill="#b0c3ff"/><path d="M1212.338 567.741a.713.713 0 0 1-.103-.007L968.28 534.041a.756.756 0 0 1-.437-.221l-54.465-56.281a.752.752 0 0 1 .641-1.265l243.955 33.692c.166.023.32.101.437.221l54.465 56.281a.752.752 0 0 1-.538 1.273zm-243.596-35.15 241.545 33.359-52.773-54.533-241.545-33.359z" fill="#111"/><path d="m1328.102 343.585 54.465 56.282-18.532 79.64-54.465-56.281z" fill="#b0c3ff"/><path d="M1364.035 480.257c-.2 0-.396-.08-.539-.229l-54.465-56.281a.748.748 0 0 1-.191-.691l18.532-79.641a.75.75 0 0 1 1.269-.352l54.465 56.281a.748.748 0 0 1 .191.691l-18.532 79.641a.75.75 0 0 1-.73.581zm-53.642-57.259 53.223 54.998 18.127-77.902-53.223-54.998z" fill="#111"/><path d="m1285.123 528.284 54.465 56.281-20.865 89.666-54.465-56.282z" fill="#b0c3ff"/><path d="M1318.723 674.981c-.2 0-.396-.08-.539-.229l-54.465-56.281a.748.748 0 0 1-.191-.691l20.865-89.666a.75.75 0 0 1 1.269-.352l54.465 56.281a.748.748 0 0 1 .191.691l-20.865 89.666a.75.75 0 0 1-.73.581zm-53.642-57.26 53.224 54.999 20.46-87.927-53.224-54.999z" fill="#111"/><path d="m1264.258 617.949 54.465 56.282-127.251-17.575-54.465-56.281z" fill="#b0c3ff"/><path d="M1318.724 674.981a.713.713 0 0 1-.103-.007l-127.25-17.574a.756.756 0 0 1-.437-.221l-54.465-56.281a.752.752 0 0 1 .641-1.265l127.25 17.574c.166.023.32.101.437.221l54.465 56.281a.752.752 0 0 1-.538 1.272zm-126.893-19.032 124.841 17.242-52.774-54.534-124.841-17.241z" fill="#111"/><path d="m1353.687 537.753 54.465 56.281-68.564-9.469-54.465-56.281z" fill="#b0c3ff"/><path d="M1408.153 594.784a.713.713 0 0 1-.103-.007l-68.564-9.469a.756.756 0 0 1-.437-.221l-54.465-56.281a.752.752 0 0 1 .641-1.265l68.564 9.469c.166.023.32.101.437.221l54.465 56.281a.752.752 0 0 1-.538 1.272zm-68.206-10.927 66.155 9.136-52.773-54.533-66.155-9.137z" fill="#111"/><path d="m1378.134 432.695 54.465 56.281-24.447 105.058-54.465-56.281z" fill="#b0c3ff"/><path d="M1408.152 594.784c-.2 0-.396-.08-.539-.229l-54.465-56.281a.748.748 0 0 1-.191-.691l24.446-105.058a.75.75 0 0 1 1.269-.352l54.465 56.281a.748.748 0 0 1 .191.691l-24.447 105.058a.75.75 0 0 1-.729.581zm-53.641-57.259 53.223 54.998 24.042-103.319-53.224-54.998z" fill="#111"/><path d="M431.079 19.418 179.481 267.151l93.622 12.93 18.532-79.64 123.299 17.028-18.532 79.641 68.564 9.469-24.446 105.058-68.565-9.469-20.865 89.666-127.25-17.575 20.865-89.666L.75 350.901l20.086-86.319L295.912.75z" fill="#3658c1"/><path d="M351.091 492.584a.723.723 0 0 1-.103-.007l-127.25-17.574a.752.752 0 0 1-.628-.913l20.679-88.865L.647 351.644a.752.752 0 0 1-.628-.913l20.086-86.319a.744.744 0 0 1 .211-.371L295.392.209a.752.752 0 0 1 .622-.202l135.167 18.668a.749.749 0 0 1 .423 1.278L181.093 266.617l91.435 12.628 18.376-78.974a.743.743 0 0 1 .833-.573l123.299 17.029a.752.752 0 0 1 .628.913l-18.346 78.84 67.75 9.357a.752.752 0 0 1 .628.913L441.25 411.807a.752.752 0 0 1-.833.573l-67.887-9.375-20.709 88.999a.752.752 0 0 1-.73.58zm-126.334-18.955 125.758 17.368 20.709-88.999a.749.749 0 0 1 .833-.573l67.887 9.375 24.105-103.59-67.75-9.357a.752.752 0 0 1-.628-.913l18.346-78.84-121.807-16.822-18.376 78.974a.749.749 0 0 1-.833.573l-93.622-12.93a.749.749 0 0 1-.423-1.278L429.467 19.952 296.168 1.543 21.516 264.969l-19.85 85.302 243.141 33.58a.752.752 0 0 1 .628.913z" fill="#111"/><path d="M911.732 192.506c8.791 39.195 7.324 84.015-4.404 134.416-11.732 50.416-30.563 92.824-56.479 127.225-25.931 34.399-56.51 59.075-91.743 73.996-35.239 14.95-72.404 19.703-111.518 14.301-39.569-5.465-72.503-19.899-98.807-43.349-26.31-23.421-43.858-54.743-52.65-93.938-8.806-39.197-7.329-84.001 4.403-134.417 11.728-50.401 30.549-92.825 56.48-127.224 25.918-34.402 56.496-59.078 91.732-74.013 35.233-14.922 72.628-19.658 112.197-14.193 39.115 5.402 71.819 19.819 98.129 43.241 26.306 23.435 43.854 54.758 52.66 93.955zM732.784 408.824c17.979-19.835 32.444-53.183 43.343-100.021 10.902-46.853 12.372-81.98 4.459-105.405-7.942-23.43-22.892-36.661-44.866-39.696-22.428-3.097-42.641 5.277-60.638 25.125-17.997 19.847-32.444 53.182-43.347 100.035-10.899 46.838-12.386 81.979-4.456 105.392 7.924 23.442 23.106 36.69 45.533 39.787 21.975 3.034 41.956-5.357 59.972-25.217" fill="#3658c1"/><path d="M678.164 545.327c-10.115 0-20.345-.712-30.68-2.139-39.553-5.463-72.93-20.109-99.204-43.532-26.301-23.413-44.093-55.151-52.883-94.334-8.785-39.104-7.303-84.44 4.405-134.751 11.705-50.303 30.752-93.202 56.611-127.505 25.882-34.354 56.848-59.336 92.038-74.252 35.203-14.909 73.086-19.702 112.592-14.245 39.071 5.396 72.219 20.006 98.524 43.423 26.296 23.425 44.093 55.169 52.895 94.35 8.777 39.134 7.295 84.47-4.405 134.75-11.698 50.273-30.745 93.172-56.61 127.506-25.903 34.362-56.873 59.338-92.05 74.236-25.872 10.977-53.092 16.493-81.233 16.493zm51.647-491.439c-28.085 0-55.144 5.452-80.774 16.307-34.944 14.811-65.704 39.632-91.425 73.773-25.733 34.135-44.691 76.845-56.349 126.943-11.656 50.089-13.137 95.201-4.402 134.083 8.719 38.87 26.354 70.342 52.417 93.542 26.048 23.222 59.159 37.745 98.411 43.166 38.814 5.361 76.202.567 111.123-14.249 34.932-14.794 65.695-39.609 91.437-73.757 25.739-34.166 44.697-76.876 56.348-126.943 11.648-50.055 13.128-95.172 4.402-134.082-8.731-38.869-26.371-70.347-52.428-93.559-26.079-23.216-58.961-37.703-97.732-43.058-10.462-1.445-20.815-2.166-31.028-2.166zm-48.446 381.499c-2.854 0-5.739-.201-8.654-.604-22.637-3.126-38.161-16.682-46.142-40.29-7.939-23.438-6.447-59.035 4.436-105.802 10.879-46.75 25.521-80.519 43.521-100.369 18.09-19.949 38.716-28.483 61.297-25.364 22.17 3.062 37.47 16.586 45.474 40.198 7.93 23.477 6.436 59.078-4.439 105.816-10.875 46.732-25.516 80.496-43.518 100.355-15.713 17.321-33.161 26.06-51.975 26.06zm45.512-271.553c-18.672 0-35.872 8.548-51.24 25.496-17.827 19.659-32.352 53.203-43.172 99.701-10.818 46.491-12.324 81.812-4.476 104.981 7.783 23.026 22.898 36.243 44.926 39.285 21.616 2.987 41.571-5.418 59.313-24.977 17.828-19.667 32.352-53.207 43.168-99.688 10.812-46.462 12.318-81.787 4.479-104.995-7.806-23.029-22.697-36.215-44.258-39.193a63.834 63.834 0 0 0-8.74-.61zm5.907 244.99h.01z" fill="#111"/><path d="m1344.246 145.533-251.598 247.734 93.622 12.93 18.532-79.64 123.3 17.028-18.532 79.641 68.564 9.469-24.447 105.058-68.564-9.469-20.865 89.665-127.251-17.574 20.865-89.666-243.954-33.692 20.086-86.319 275.075-263.832z" fill="#3658c1"/><path d="M1264.258 618.699a.723.723 0 0 1-.103-.007l-127.25-17.574a.752.752 0 0 1-.628-.913l20.679-88.866-243.14-33.58a.752.752 0 0 1-.628-.913l20.086-86.319a.744.744 0 0 1 .211-.371l275.076-263.832a.753.753 0 0 1 .622-.202l135.167 18.668a.749.749 0 0 1 .423 1.278L1094.26 392.733l91.435 12.628 18.377-78.974a.742.742 0 0 1 .833-.573l123.3 17.029a.752.752 0 0 1 .628.913l-18.346 78.84 67.75 9.357a.752.752 0 0 1 .628.913l-24.446 105.058a.75.75 0 0 1-.833.573l-67.887-9.376-20.71 88.999a.752.752 0 0 1-.731.579zm-126.334-18.955 125.758 17.368 20.71-88.999a.75.75 0 0 1 .833-.573l67.887 9.376 24.105-103.591-67.75-9.357a.752.752 0 0 1-.628-.913l18.346-78.84-121.808-16.823L1187 406.367a.75.75 0 0 1-.833.573l-93.622-12.93a.749.749 0 0 1-.423-1.278l250.513-246.665-133.298-18.409-274.653 263.427-19.85 85.302 243.141 33.58a.752.752 0 0 1 .628.913z" fill="#111"/></svg></g><g transform="translate(2403.6 1273.2) rotate(29.174711206772397 -829.8 620.4) scale(-2.0956873996100573 2.0928667450423446)"><svg width="791.912" height="592.871" viewBox="0 0 791.912 592.871"><path d="m175.346 77.824-97.014-66.84-4.615 19.776L170.73 97.6c.007.493.069 4.708-1.456 11.244l4.615-19.776c1.525-6.537 1.463-10.751 1.456-11.244z" fill="#3658c1"/><path d="M169.276 109.844a1 1 0 0 1-.975-1.227l.004-.02c1.219-5.231 1.409-8.927 1.426-10.472L73.15 31.584a.998.998 0 0 1-.406-1.051l4.615-19.776a1 1 0 0 1 1.541-.596l97.013 66.84a1 1 0 0 1 .433.809c.017 1.132-.041 5.307-1.482 11.486l-4.615 19.776a1 1 0 0 1-.973.772zm-94.429-79.52 96.25 66.313 1.82-7.797c1.223-5.241 1.413-8.944 1.43-10.491l-95.374-65.71z" fill="#111"/><path d="m189.571 204.803-4.615 19.776c-3.431 1.206-68.611 24.116-117.622-9.652-50.602-34.863-72.074-67.69-65.03-97.879l4.615-19.776c-7.044 30.188 14.428 63.016 65.03 97.88 49.011 33.767 114.192 10.858 117.622 9.652" fill="#3658c1"/><path d="M131.81 234.278c-20.698 0-44.301-4.236-65.043-18.527-50.603-34.864-72.62-68.149-65.436-98.93l4.615-19.776a1 1 0 0 1 1.948.455c-6.977 29.899 14.766 62.478 64.624 96.828 47.236 32.544 109.75 11.984 116.723 9.532a.999.999 0 0 1 1.305 1.171l-4.615 19.776c-.078.332-.32.603-.642.716-4.019 1.413-26.231 8.755-53.478 8.755zM4.69 111.224l-1.412 6.052c-6.977 29.899 14.766 62.478 64.624 96.828 46.233 31.854 107.109 12.83 116.206 9.712l4.081-17.488c-12.438 4.078-71.458 20.892-116.807-10.354-42.925-29.573-65.28-58.012-66.692-84.75z" fill="#111"/><path d="m777.853 542.801-4.615 19.776c2.126-9.109-1.927-19.247-11.308-25.71-12.838-8.845-30.786-7.452-40.089 3.103-2.508 2.846-4.133 6.067-4.917 9.427l4.615-19.776c.784-3.36 2.409-6.581 4.917-9.427 9.302-10.556 27.251-11.948 40.089-3.103 9.38 6.463 13.433 16.6 11.308 25.71" fill="#3658c1"/><path d="M773.239 563.578a1 1 0 0 1-.975-1.227l.002-.01c2.089-8.972-2.19-18.646-10.903-24.649-12.413-8.552-29.806-7.232-38.771 2.941-2.341 2.657-3.92 5.684-4.693 8.994a1 1 0 0 1-1.948-.455l4.615-19.776c.848-3.636 2.578-6.954 5.14-9.861 9.613-10.907 28.188-12.372 41.406-3.266 9.398 6.475 13.996 16.979 11.714 26.761l-4.61 19.759-.004.018a1 1 0 0 1-.973.772zm-30.131-33.511c6.687 0 13.559 1.96 19.39 5.978 6.396 4.406 10.569 10.68 11.863 17.32l2.518-10.791c2.094-8.975-2.185-18.653-10.901-24.659-12.413-8.552-29.806-7.232-38.771 2.941-2.341 2.657-3.92 5.683-4.693 8.994l-2.52 10.797c.347-.455.713-.9 1.097-1.337 5.372-6.096 13.545-9.243 22.016-9.243z" fill="#111"/><path d="M782.986 559.143c-13.365 15.166-39.063 17.317-57.676 4.843L189.571 204.803l-4.615 19.776 535.739 359.183c18.613 12.474 44.311 10.322 57.676-4.844 3.632-4.121 5.987-8.79 7.124-13.663l4.615-19.776c-1.137 4.873-3.492 9.541-7.124 13.663z" fill="#3658c1"/><path d="M747.472 592.806c-9.419 0-19.091-2.689-27.333-8.213l-535.74-359.182a1 1 0 0 1-.417-1.059l4.615-19.776a1 1 0 0 1 1.53-.603l535.739 359.183c18.113 12.14 43.4 10.043 56.369-4.674 3.441-3.904 5.762-8.355 6.9-13.229a1 1 0 0 1 1.948.455l-4.615 19.776c-1.213 5.198-3.685 9.94-7.348 14.096-7.678 8.714-19.451 13.227-31.649 13.227zM186.087 224.134l535.166 358.797c18.112 12.14 43.399 10.043 56.368-4.674 3.442-3.904 5.764-8.355 6.901-13.229l2.095-8.979a34.38 34.38 0 0 1-2.88 3.754l-.75-.661.75.661c-13.609 15.44-40.068 17.69-58.983 5.014L190.216 206.44z" fill="#111"/><path d="M78.332 10.984C110.621-8.47 154.736.406 210.01 38.489c49.011 33.767 39.817 95.252 39.334 98.488l524.85 371.539c18.23 12.909 22.15 35.468 8.792 50.626-13.365 15.166-39.063 17.318-57.676 4.844L189.571 204.803c-3.431 1.206-68.611 24.116-117.622-9.652-55.275-38.082-75.792-73.736-62.35-106.174l97.013 66.84c1.293-.272 25.858-5.449 47.471-29.974 21.607-24.518 21.279-46.844 21.262-48.019zM772.94 552.221c9.302-10.556 6.443-26.284-6.395-35.129s-30.786-7.452-40.089 3.103c-9.308 10.562-6.449 26.292 6.389 35.136 12.838 8.845 30.786 7.452 40.095-3.11" fill="#fff"/><path d="M752.086 573.03c-9.419 0-19.091-2.689-27.333-8.213L189.428 205.912c-9.053 3.109-70.929 22.525-118.047-9.938C16.045 157.85-5.052 121.722 8.675 88.594a1.001 1.001 0 0 1 1.492-.44l96.656 66.593c4.086-.932 26.556-6.921 46.511-29.564 19.697-22.351 20.964-42.781 21.013-46.833L77.765 11.807a.999.999 0 0 1 .051-1.68C110.664-9.664 155.332-.397 210.578 37.666c46.913 32.321 41.094 89.762 39.843 98.849l524.352 371.186c9.541 6.756 15.707 16.585 16.918 26.969 1.07 9.174-1.754 18.1-7.954 25.135-7.679 8.713-19.452 13.226-31.65 13.227zM189.571 203.803c.196 0 .39.058.557.169l535.74 359.183c18.112 12.141 43.4 10.042 56.369-4.674 5.82-6.604 8.472-14.978 7.468-23.58-1.146-9.821-7.01-19.141-16.087-25.568L248.766 137.794a1 1 0 0 1-.411-.965c.981-6.561 8.224-65.041-38.912-97.517-53.786-37.056-97.258-46.561-129.25-28.261L175.913 77a1 1 0 0 1 .433.809c.037 2.444-.256 24.576-21.512 48.695-21.217 24.076-45.334 29.726-48.015 30.291a1 1 0 0 1-.774-.155L10.062 90.51c-12.354 31.828 8.65 66.748 62.455 103.817 47.236 32.544 109.75 11.984 116.723 9.532a1 1 0 0 1 .332-.057zM751.665 562.13c-6.686 0-13.556-1.959-19.386-5.976-6.799-4.684-11.216-11.572-12.119-18.898-.796-6.466 1.173-12.76 5.546-17.723 9.613-10.907 28.188-12.372 41.406-3.266 6.8 4.685 11.218 11.574 12.121 18.901.796 6.463-1.172 12.754-5.542 17.713-5.375 6.099-13.552 9.248-22.026 9.248zm-3.962-49.857c-7.902 0-15.504 2.919-20.496 8.583-3.99 4.527-5.788 10.266-5.062 16.155.833 6.76 4.939 13.137 11.268 17.497 12.414 8.551 29.808 7.228 38.777-2.948l.75.661-.75-.661c3.987-4.524 5.783-10.258 5.058-16.146-.833-6.76-4.94-13.138-11.27-17.499-5.501-3.79-11.984-5.642-18.275-5.642z" fill="#111"/></svg></g></svg>