<svg xmlns="http://www.w3.org/2000/svg" xmlns:xlink="http://www.w3.org/1999/xlink" viewBox="0,0,256,256" width="250px" height="250px"><g fill="#ffffff" fill-rule="nonzero" stroke="none" stroke-width="1" stroke-linecap="butt" stroke-linejoin="miter" stroke-miterlimit="10" stroke-dasharray="" stroke-dashoffset="0" font-family="none" font-weight="none" font-size="none" text-anchor="none" style="mix-blend-mode: normal"><g transform="scale(5.12,5.12)"><path d="M15.28125,6c-0.16016,0.03516 -0.3125,0.10938 -0.4375,0.21875l-10.21875,7.84375c-0.01172,0.01172 -0.01953,0.01953 -0.03125,0.03125c-0.01172,0 -0.01953,0 -0.03125,0c-0.07812,0.04297 -0.15234,0.09375 -0.21875,0.15625c-0.01172,0.01172 -0.01953,0.01953 -0.03125,0.03125c-0.01953,0.00781 -0.04297,0.01953 -0.0625,0.03125c0,0.01172 0,0.01953 0,0.03125c-0.03516,0.03906 -0.06641,0.08203 -0.09375,0.125c-0.01172,0.01953 -0.02344,0.04297 -0.03125,0.0625c-0.01172,0.01172 -0.01953,0.01953 -0.03125,0.03125c-0.02344,0.05078 -0.04687,0.10156 -0.0625,0.15625l-3.9375,7.84375c-0.19531,0.38672 -0.12109,0.85156 0.18359,1.16016c0.30859,0.30469 0.77344,0.37891 1.16016,0.18359l2.5625,-1.28125v20.375c0,0.55078 0.44922,1 1,1h30c0.01172,0 0.01953,0 0.03125,0c0.0625,-0.00391 0.125,-0.01562 0.1875,-0.03125c0.03125,-0.00781 0.0625,-0.01953 0.09375,-0.03125c0.125,-0.03906 0.24219,-0.10156 0.34375,-0.1875c0.02344,-0.01953 0.04297,-0.03906 0.0625,-0.0625c0.02344,-0.01953 0.04297,-0.03906 0.0625,-0.0625l0.0625,-0.09375c0.02344,-0.01953 0.04297,-0.03906 0.0625,-0.0625l7.875,-9.84375c0.14063,-0.17578 0.21875,-0.39844 0.21875,-0.625v-9.5625l5.71875,-5.71875c0.31641,-0.33203 0.36719,-0.83203 0.125,-1.21875l-5.84375,-9.71875c-0.03516,-0.16016 -0.10937,-0.3125 -0.21875,-0.4375c-0.00781,-0.01953 -0.01953,-0.04297 -0.03125,-0.0625c-0.01172,0 -0.01953,0 -0.03125,0c-0.00781,-0.01953 -0.01953,-0.04297 -0.03125,-0.0625c-0.01172,0 -0.01953,0 -0.03125,0c-0.01953,-0.02344 -0.03906,-0.04297 -0.0625,-0.0625c-0.07031,-0.03906 -0.14062,-0.07031 -0.21875,-0.09375c-0.01953,-0.01172 -0.04297,-0.02344 -0.0625,-0.03125c-0.01172,0 -0.01953,0 -0.03125,0c-0.01953,-0.01172 -0.04297,-0.02344 -0.0625,-0.03125c-0.01172,0 -0.01953,0 -0.03125,0c-0.01953,0 -0.04297,0 -0.0625,0c-0.01172,0 -0.01953,0 -0.03125,0c-0.01953,0 -0.04297,0 -0.0625,0c-0.01172,0 -0.01953,0 -0.03125,0h-27.53125c-0.03125,0 -0.0625,0 -0.09375,0c-0.03125,0 -0.0625,0 -0.09375,0zM15.78125,8h24.78125l-6,6h-26.625zM42.8125,8.625l4.9375,8.1875l-6.5625,6.5625l-4.9375,-8.1875zM6,16h28v26h-28v-20.875c0.00391,-0.04297 0.00391,-0.08203 0,-0.125zM36,18.5625l4.15625,6.9375c0.15234,0.26563 0.42188,0.44922 0.72656,0.49219c0.30469,0.04297 0.61328,-0.05859 0.83594,-0.27344l0.28125,-0.28125v7.21875l-6,7.5zM4,19.25v1.125l-0.75,0.375zM14.71875,20c-0.55078,0.07813 -0.9375,0.58984 -0.85937,1.14063c0.07813,0.55078 0.58984,0.9375 1.14063,0.85938h10c0.35938,0.00391 0.69531,-0.18359 0.87891,-0.49609c0.17969,-0.3125 0.17969,-0.69531 0,-1.00781c-0.18359,-0.3125 -0.51953,-0.5 -0.87891,-0.49609h-10c-0.03125,0 -0.0625,0 -0.09375,0c-0.03125,0 -0.0625,0 -0.09375,0c-0.03125,0 -0.0625,0 -0.09375,0z"></path></g></g></svg>